<?xml version="1.0" standalone="no"?>
<!DOCTYPE svg PUBLIC "-//W3C//DTD SVG 1.1//EN" "http://www.w3.org/Graphics/SVG/1.1/DTD/svg11.dtd" >
<svg xmlns="http://www.w3.org/2000/svg">
<metadata></metadata>
<defs>
<font id="antique_book_cover_regularRg" horiz-adv-x="927" >
<font-face units-per-em="2048" ascent="1536" descent="-512" />
<missing-glyph horiz-adv-x="419" />
<glyph horiz-adv-x="0" />
<glyph unicode="&#xd;" horiz-adv-x="407" />
<glyph unicode=" "  horiz-adv-x="419" />
<glyph unicode="&#x09;" horiz-adv-x="419" />
<glyph unicode="&#xa0;" horiz-adv-x="419" />
<glyph unicode="!" horiz-adv-x="776" d="M313 78q0 34 24 58t56 24q36 0 60 -24t24 -58q0 -32 -24 -56t-60 -24q-32 0 -56 24t-24 56zM313 895v537h164v-537l-31 -621h-102z" />
<glyph unicode="&#x22;" horiz-adv-x="679" d="M197 1350q7 34 36 57q49 37 99 16q-30 0 -58 -22q-23 -17 -34 -49q5 0 7 1t5 1q22 0 38 -16q15 -15 15 -38q0 -15 -12 -30q-11 -14 -29 -19h-12q-20 0 -39 19q-1 1 -3 5t-5 7q-16 32 -8 68zM354 1350q7 33 39 57q46 37 96 16q-29 0 -57 -22q-24 -18 -35 -49q5 0 7 1t8 1 q21 0 37 -16q14 -14 14 -38q0 -15 -12 -30q-11 -14 -29 -19h-10q-22 0 -41 19q-1 1 -3 5q-1 2 -6 7q-16 32 -8 68z" />
<glyph unicode="#" horiz-adv-x="1384" d="M307 406v161h131l51 332h-182v152h207l64 385h163l-63 -385h190l62 385h164l-62 -385h101v-152h-127l-54 -332h181v-161h-207l-66 -404h-162l66 404h-191l-65 -404h-162l66 404h-105zM600 567h191l53 332h-191z" />
<glyph unicode="$" horiz-adv-x="1024" d="M160 1085v15q0 70 18 131q12 33 33 63q0 5 4 9q3 3 5 6t9 10q30 34 58 55l12 6q35 21 78 37q43 15 104 15h8q15 0 27 -3q77 -5 117 -24q16 -8 39 -20q15 -8 26 -19q19 -4 25 -2q16 0 22 41h72v-334h-72q2 93 -18 150q-2 2 -2 8q-2 2 -2 3t-2 3q-10 28 -29 53 q-23 36 -76 64q-50 22 -104 22q-41 0 -70 -8q-68 -18 -114 -70q-45 -51 -45 -118q2 -6 2 -13q0 -8 2 -14q4 -21 12 -43q6 -18 23 -41l4 -4q0 -2 2 -4q36 -57 92 -113l4 -4l2 -1q0 -1 2 -2l2 -1q22 -20 30 -28q17 -17 27 -25l48 -49l18 -19q11 -11 18 -16l19 -19 q11 -11 16 -18q73 -77 111 -123q25 -32 41 -57q24 -38 35 -56l4 -8l4 -8l4 -8l4 -8q20 -38 31 -74q10 -43 10 -82q0 -41 -10 -90l-19 -43q-9 -21 -10 -23q-4 -8 -14 -22q-22 -37 -62 -72q-4 -4 -6 -4q-45 -39 -104 -61q-63 -23 -125 -23q-58 0 -109 18q-24 7 -49 20 q-30 16 -45 26q-6 2 -8 2t-8 2q-7 0 -13 -2q-12 0 -18 -17v-49h-86v360h86v-108q2 -6 2 -9t2 -9t2 -10q0 -3 2 -9l6 -12q24 -53 80 -86q51 -33 123 -33q42 0 84 16q38 15 68 45t47 64q16 38 16 80q0 23 -6 45q0 3 -1 6l-2 6t-1 4q-1 2 -2.5 5.5t-1.5 4.5q-1 1 -2.5 5t-1.5 5 q0 2 -2 5t-3 4q-9 9 -10 14q-2 4 -7 12.5t-8 12.5q-7 11 -18 22v2q-10 10 -12 17l-10 10l-10 10q-16 18 -56 56l-61 61q-19 19 -28 27t-25 22l-8 8q0 1 -2 2t-3 1l-4 4q-47 44 -73 73q-37 40 -56 74q-10 14 -15 22q-3 4 -8 12.5t-7 12.5q-12 16 -15 23q-4 8 -12 22 q-20 36 -37 88q-14 41 -14 96zM440 -150v1684h127v-1684h-127z" />
<glyph unicode="%" horiz-adv-x="1150" d="M227 2l596 1430h121l-596 -1430h-121zM252 1104v131q0 39 13 69q13 31 36 55q22 24 52 37q29 13 65 13q35 0 64 -13q32 -14 53 -37q21 -22 35 -55t14 -69v-131q0 -72 -48 -122t-118 -50q-36 0 -65 13q-30 13 -52 37q-23 24 -36 55q-13 30 -13 67zM336 1049q0 -38 23 -64 q24 -27 59 -27t59 27q25 28 25 64v247q0 34 -25 62q-23 26 -59 26t-59 -26t-23 -62v-247zM584 176v131q0 72 48 123t118 51q34 0 62 -14q31 -15 52 -38q23 -24 36 -55q13 -30 13 -67v-131q0 -36 -13 -66q-14 -32 -36 -56q-21 -23 -52 -38q-28 -14 -62 -14q-70 0 -118 51 t-48 123zM666 119q0 -35 24 -62q23 -26 60 -26q35 0 58 26t23 62v246q0 40 -23 64q-24 26 -58 26q-36 0 -60 -26q-24 -25 -24 -64v-246z" />
<glyph unicode="&#x26;" horiz-adv-x="1564" d="M299 354q0 146 70 262q27 44 65 86q38 38 47 46q23 21 62 51l12 12q-53 87 -74 139q-24 61 -36 112q-11 48 -11 99q0 65 23 117q16 40 35 67q21 31 49 48q54 39 131 39q100 0 166 -68q67 -67 67 -176q0 -73 -35 -137q-29 -58 -108 -119q-10 -8 -24.5 -20.5t-19.5 -16.5 q-18 -15 -28 -25l271 -467q30 66 51 117q15 36 30 86q23 75 23 119q0 98 -115 119v20h318v-20q-19 -2 -34 -6q-17 -5 -26 -9q-22 -12 -45 -36q-40 -43 -102 -205l-27 -66q-21 -55 -24 -61q-32 -73 -35 -80q5 -7 10.5 -15.5t12.5 -19l11 -16.5q23 -34 40 -56q35 -50 38 -54 q16 -21 35 -42q21 -26 44 -45q30 -26 38 -33q34 -22 66 -22q36 0 59 24q25 25 41 80l16 -10q-39 -170 -174 -170q-50 0 -94 21q-48 22 -88 57q-33 28 -63 66q-33 41 -64 85q-13 -23 -32 -54q-4 -6 -9 -14.5t-9 -14.5t-7 -11q-45 -61 -111 -102q-63 -33 -135 -33 q-65 0 -129 29q-59 29 -100 84q-72 92 -72 239zM430 436q0 -82 21 -151q12 -43 22 -68q12 -31 29 -55q36 -48 76 -72q44 -24 90 -24q76 0 135 59q20 21 43 49q4 8 18 34q16 29 25 44l-316 530q-68 -50 -106 -143q-37 -89 -37 -203zM522 1243q0 -23 3 -44q3 -20 14 -44 q7 -25 19 -51q19 -40 34 -68q16 -30 39 -70q28 -48 43 -71q42 40 57 63q18 26 35 68q27 74 27 160q0 103 -39 160q-37 61 -105 61q-55 0 -90 -45q-37 -53 -37 -119z" />
<glyph unicode="'" horiz-adv-x="389" d="M100 1338q7 40 43 65q20 19 53 24q29 4 56 -6q-20 0 -34 -7q-25 -12 -32 -17q-28 -22 -39 -58q3 0 9 2t8 2q25 0 41 -17t16 -40q0 -24 -13 -38q-13 -15 -34 -19h-10q-29 0 -45 20q-7 5 -8 15q-18 35 -11 74z" />
<glyph unicode="(" horiz-adv-x="851" d="M258 715q0 106 33 223q16 59 38 116q22 56 48 107q14 29 40 70q4 7 44 65q51 64 121 140h26l-14 -27q-33 -60 -57 -111q-34 -72 -43 -94q-16 -45 -30 -90q-13 -43 -24 -92q-5 -31 -12 -74q-5 -30 -10 -82q-5 -44 -6 -80q-2 -50 -2 -69q0 -35 3 -78q4 -62 7 -92 q18 -155 55 -258q17 -54 48 -121q22 -49 71 -141l14 -27h-26q-133 139 -205 274q-53 102 -88 222q-31 121 -31 219z" />
<glyph unicode=")" horiz-adv-x="841" d="M215 4l14 27q82 156 115 260q20 57 31 117q10 54 22 141q13 107 13 170q0 29 -3 67q-1 12 -8 80q-4 39 -9 82q-3 30 -13 74q-8 38 -23 92q-13 48 -28 88q-13 35 -41 94q-9 20 -29.5 59.5t-26.5 51.5l-14 27h27q10 -11 31.5 -37t32.5 -39q16 -18 52 -64q40 -58 44 -65 q25 -39 40 -68q55 -104 88 -223q33 -117 33 -221q0 -107 -33 -219q-18 -64 -37 -114t-51 -108q-39 -68 -87 -135q-52 -74 -113 -137h-27z" />
<glyph unicode="*" horiz-adv-x="872" d="M143 1114v105l226 -31v4l-144 186l94 52l95 -211h2l94 215l94 -52l-149 -190v-4l231 31v-105l-231 29v-4l149 -183l-94 -55l-94 213h-2l-101 -213l-88 51l144 187v4z" />
<glyph unicode="+" horiz-adv-x="894" d="M154 614v39h262v248h39v-248h262v-39h-262v-249h-39v249h-262z" />
<glyph unicode="," horiz-adv-x="780" d="M242 -113q64 0 125 45q27 21 42 48q16 29 23 57q-4 0 -10 -3t-14 -3q-42 0 -73 31q-32 32 -32 77q0 36 25 67t61 38h19q56 0 79 -39q15 -7 23 -27q28 -65 13 -137q-15 -73 -72 -119q-95 -76 -209 -35z" />
<glyph unicode="-" d="M170 532v74h512v-74h-512z" />
<glyph unicode="." horiz-adv-x="512" d="M147 100q0 39 29 68q27 27 66 27q40 0 67 -27t27 -68q0 -40 -27 -67q-29 -29 -67 -29q-37 0 -66 29t-29 67z" />
<glyph unicode="/" horiz-adv-x="960" d="M111 6l596 1430h120l-596 -1430h-120z" />
<glyph unicode="0" horiz-adv-x="831" d="M209 264v905q0 61 20 105q17 42 54 84q31 36 77 57q40 21 95 21q51 0 94 -21q47 -22 78 -57q11 -12 29 -40q13 -20 24 -44q18 -50 18 -105v-905q0 -57 -18 -102q-12 -27 -24 -46q-16 -25 -29 -38q-32 -37 -78 -58q-48 -22 -94 -22q-51 0 -95 22q-44 21 -77 58 q-37 37 -54 84q-20 41 -20 102zM373 125q0 -34 24 -55q22 -25 58 -25q34 0 59 25q23 23 23 55v1182q0 29 -23 57q-26 22 -59 22q-36 0 -58 -22q-24 -24 -24 -57v-1182z" />
<glyph unicode="1" horiz-adv-x="512" d="M86 1288v41q43 6 80 25h2q2 0 6 4q58 28 70 78h80v-1368q0 -5 2 -7v-6q6 -34 41 -57h-244q37 21 43 57v1164q0 3 -1.5 8t-2.5 7q-1 3 -2 7l-2 4q-7 15 -29 31q-22 12 -43 12z" />
<glyph unicode="2" horiz-adv-x="704" d="M104 -2v244q1 5 2.5 14t1.5 13q2 18 5 28q1 23 12 51q27 95 78 172q5 9 47 74l49 74q6 10 9 14l9 12l9 13q2 2 4.5 7l3.5 7l10 22q1 1 2.5 3t3 4.5t2.5 3.5q2 2 4.5 7l3.5 7q44 69 62 145q10 54 13 76q6 51 7 72q2 70 0 127q-4 28 -6 48l-4 32v12q-2 2 -2 6q-8 44 -45 72 q-34 28 -80 28q-49 0 -82 -30q-34 -33 -45 -80h6q35 0 58 -23q22 -26 22 -57q0 -35 -22 -57q-23 -23 -58 -23h-8q-23 1 -49 27q-23 23 -23 51v6q4 52 23 92q18 43 51 76q34 32 78 49q46 19 92 19q-28 0 -61 -13q29 9 67 9h19q4 0 16 -3q17 0 33 -6q65 -18 108 -73 q49 -58 56 -125q16 -74 16 -148q0 -27 -1 -40q-2 -26 -3 -38l-4 -36q-2 -19 -6 -35q-17 -97 -56 -176q-22 -48 -37 -77q-26 -48 -40 -71q-14 -22 -22 -33q-5 -7 -21 -32q-27 -42 -43 -62v-2q-7 -7 -10 -13q-1 -2 -3.5 -6.5t-5 -9.5t-4.5 -10q-14 -31 -16 -36 q-2 -4 -5.5 -12.5t-6.5 -16.5t-5 -15q-18 -46 -30 -114q-13 -68 -9 -144h277q22 0 37 15q14 14 14 34v-149h-498z" />
<glyph unicode="3" horiz-adv-x="735" d="M117 145v17q0 41 28 69q29 29 68 29q41 0 70 -29q28 -28 28 -69q0 -49 -41 -78q39 -39 99 -39q61 0 100 39t39 94v150l2 2v198q0 6 -4 25q-8 70 -82 117q-69 45 -174 45v16q97 0 168 43q69 39 86 107q1 3 6 39v55v36q0 12 -2 40v206q0 51 -39 89q-40 34 -100 34 q-50 0 -90 -28q25 -22 30 -60v-8q0 -37 -26 -63q-27 -27 -64 -27q-38 0 -65 27t-27 63q0 34 20 55q8 10 23 21q38 32 88 55q46 21 109 21t112 -21q29 -11 48 -25q14 -10 42 -34q41 -39 62 -86q22 -54 22 -109v-211q0 -13 -1 -21t-3 -22q0 -3 -1.5 -10t-2.5 -11 q-1 -11 -6 -22q-34 -98 -123 -149q67 -39 107 -111q11 -21 13 -29l3 -9t3.5 -11t2.5 -10q8 -29 8 -66v-209q0 -56 -22 -106q-20 -49 -62 -88q-19 -19 -43 -35q-19 -13 -47 -25q-54 -22 -112 -22q-70 0 -119 26q-53 23 -96 66q-11 11 -15 16q-2 2 -3.5 5t-3.5 6.5t-3 5.5 q-4 7 -6 14z" />
<glyph unicode="4" horiz-adv-x="880" d="M74 520l37 80l389 836h164v-836h161v-80h-161v-477q15 -31 38 -45h-241q33 18 39 53v469h-426zM201 600h299v643z" />
<glyph unicode="5" horiz-adv-x="735" d="M94 217q0 43 31 74q28 28 72 28h12q6 -2 12 -2q38 -11 58 -36q20 -26 20 -64q0 -35 -20 -61q-23 -30 -56 -37q7 -27 43 -49q33 -21 76 -21q54 0 88 27q35 24 35 59v625q0 32 -35 61q-39 25 -88 25q-50 0 -84 -25q-37 -28 -37 -61v-76h-84v752h490v-154h-15q-23 25 -53 25 h-338v-459q63 39 141 39q60 0 109 -21q46 -22 88 -59q24 -28 34 -42q14 -19 25 -48q21 -49 21 -109v-332q0 -60 -21 -106q-21 -50 -59 -88q-36 -36 -88 -59q-57 -23 -109 -23q-91 0 -159 49q-71 48 -101 127q-2 2 -2 6t-2 6q-4 19 -4 29z" />
<glyph unicode="6" horiz-adv-x="841" d="M98 301v811q0 89 47 168q46 75 119 115q16 11 36 18q26 10 40 14q47 11 84 11q85 0 156 -37q68 -39 112 -105q15 -15 21 -30q6 -18 6 -39q0 -45 -31 -76t-76 -31q-4 0 -10 2h-10q-37 11 -60 37q-24 27 -24 68q0 31 16 57q15 23 43 39q-21 29 -57 49q-40 19 -82 19 q-68 0 -115 -41q-49 -43 -49 -105v-391q16 10 36 18q36 14 40 15q43 10 84 10q89 0 168 -47q72 -45 117 -115q43 -73 43 -164v-247q0 -7 -2 -9v-28q-2 0 -2 -4v-9q0 -1 -3 -4v-8l-2 -4v-8q-2 0 -2 -2v-4q-2 -2 -2 -4v-4q-2 -2 -2 -5q0 -2 -2 -4v-4l-2 -4v-2q-2 -2 -2 -4 t-2 -4v-4q-2 0 -2 -4l-2 -2q0 -4 -2 -4v-5q-2 -2 -2 -4l-2 -2q0 -2 -2 -4q0 -2 -2 -4l-2 -4v-2q-2 -2 -2 -4q-2 -2 -2 -4q-2 0 -2 -2q-2 -2 -2 -4q-3 0 -3 -4q-2 0 -2 -2q-2 -2 -2 -5q-2 0 -2 -2l-4 -4v-2l-4 -4q0 -2 -2 -2q0 -2 -2 -4q0 -2 -2 -2q0 -2 -2 -4l-6 -6 q0 -2 -2 -2q0 -2 -2 -4q-2 0 -2 -3l-6 -6v-2q-3 0 -3 -2q-2 0 -2 -2q-2 0 -4 -2q0 -2 -2 -2l-10 -10h-2q0 -4 -4 -4l-6 -6l-2 -2q-2 0 -4 -2v-3h-2q-2 -2 -5 -2v-2h-2q-2 -2 -4 -2q0 -2 -2 -2l-4 -4h-2l-4 -4h-2l-4 -4h-2l-2 -2q-2 0 -4 -2t-6 -2q0 -2 -3 -2h-2q0 -2 -2 -2 t-2 -2q-4 0 -6 -2h-2q0 -2 -4 -2l-2 -2h-2q-2 -2 -4 -2h-2q-3 -3 -4 -3l-2 -2q-4 0 -6 -2h-3h-2q-2 -2 -4 -2q-2 -2 -6 -2h-2q-2 -2 -6 -2h-2q-2 -2 -6 -2q-2 -2 -8 -2q-2 -2 -9 -2h-2q-2 -2 -4 -2h-10q-2 -2 -6 -2h-10q-2 0 -2 -2h-4h-48h-4q-2 2 -4 2h-12q-2 2 -8 2h-4 q-2 0 -2 2h-4h-3q-2 2 -8 2t-12 2l-8 4h-2l-19 6h-2l-8 5q-7 2 -14 6q-6 4 -15 6q-4 4 -8 4l-18 12l-25 19h-2q-6 4 -10 10q-9 9 -12 10q-14 14 -15 17l-8 8l-12 16q0 1 -1 2l-2 2l-2 2t-1 2l-13 19q-2 2 -2 4t-2 4v2q-4 4 -4 8q-1 0 -2 2l-1 2l-1 2q-1 2 -2 2v2q-2 2 -2 4 q0 3 -2 5v2q-4 4 -4 8v2l-4 8v2q-2 2 -2 8h-2v6q-2 0 -2 5v2q-2 2 -2 8l-2 2q0 5 -3 8v2q0 8 -2 10v9v2q-2 0 -2 2v10v4q-2 2 -2 6zM264 215q0 -30 13 -59q12 -32 28 -52q19 -25 55 -41q32 -16 68 -16q34 0 70 16q6 3 29 18q15 10 24 23q41 47 41 111v473q0 67 -47 119 q-52 47 -117 47q-68 0 -115 -47q-49 -49 -49 -119v-473z" />
<glyph unicode="7" horiz-adv-x="874" d="M121 1278v160h690v-80l-29 -78v-2l-30 -80l-113 -299l-53 -156l-13 -28l-55 -156l-133 -362q-17 -50 4 -88q22 -43 62 -58t84 2q-39 -37 -89 -45q-57 -12 -106 8q-2 2 -4 2l-6 2q-6 0 -11 5h-2q-66 34 -90 98q-27 61 -4 129l72 188l70 191q4 7 6 14l198 539l35 94l23 61 h-428q-27 0 -49 -16q-21 -18 -27 -45h-2z" />
<glyph unicode="8" horiz-adv-x="788" d="M104 272v209q0 77 39 140q37 63 99 96q-62 38 -99 98q-39 60 -39 137v211q0 52 23 109q21 49 61 86q38 36 93 59q50 21 110 21q63 0 113 -21q29 -11 48 -25q14 -10 42 -34q39 -37 61 -86q23 -57 23 -109v-211q0 -76 -37 -137q-40 -60 -100 -98q59 -33 100 -96 q37 -65 37 -140v-209q0 -54 -23 -106q-21 -51 -61 -88q-39 -39 -90 -60q-54 -22 -113 -22q-56 0 -110 22q-55 22 -93 60q-40 37 -61 88q-23 52 -23 106zM252 180q0 -53 41 -94q39 -39 100 -39q62 0 101 39q38 38 38 94v365q0 56 -38 94q-39 39 -101 39q-61 0 -100 -39 q-41 -41 -41 -94v-365zM252 883q0 -53 41 -88q38 -37 100 -37q61 0 101 37q38 32 38 88v377q0 51 -38 88q-40 34 -101 34q-60 0 -100 -34q-41 -38 -41 -88v-377z" />
<glyph unicode="9" horiz-adv-x="917" d="M121 860v273l2 4v16q2 0 2 4v8q2 0 2 4v5l2 2v8q2 2 2 4v4q2 2 2 4v4q2 2 2 4l2 4v2q0 2 2 4v5q2 2 2 4t2 2v2l2 4v2q2 2 2 4t2 2v2l3 4v2q2 2 2 4q2 2 2 4l2 5l2 2q0 2 2 2v2l2 2q0 4 2 4q0 2 2 4l2 4l2 2q0 2 2 2v2l2 2q0 2 2 2v2l2 2q0 2 2 4l6 7v2l4 4q0 2 3 2 q0 2 2 4l8 8q0 2 2 2v2q2 0 2 2l6 6l4 2q0 2 2 2q0 3 2 3v2q2 0 2 2q4 0 4 4h2l7 6q2 0 2 2h2q0 2 2 2l6 6q2 0 2 2h2l2 2q2 0 2 2h2q0 2 2 2t4 2l2 2q2 2 4 2l2 2q3 3 5 3l2 2h2q0 2 4 2q0 2 2 2t4 2q2 0 2 2q2 0 4 2h2h2l4 4h2q2 2 6 2l2 2l5 2h2q2 2 6 2l2 2q4 0 6 2 q2 0 4 2h2h2q2 0 4 2h2q2 2 8 2q2 2 7 2h2q2 2 6 2h2q2 0 4 2h2h2q3 0 6 3h8q2 0 4 2h5h8q6 0 8 2h45q2 -2 8 -2h12l3 -2h10q3 -3 8 -3h2q15 -4 18 -4l2 -2q7 0 9 -2h2l18 -6q2 -2 4 -2t4 -2h2q6 -4 15 -6l12 -6q2 -2 6 -2l4 -4l8 -4l2 -1l3 -3l2 -2t2 -1h2l24 -18 q5 -2 13 -10l10 -11q2 0 2 -2l14 -14q1 -1 3 -4l2 -2t1 -2t1 -2l2 -2t3 -4l4 -4q0 -1 2 -3q0 -2 1 -2h2q2 -2 2 -4t2 -4h2q1 -1 3 -4l1 -2q1 -2 2 -2q0 -6 4 -10l4 -8q2 0 2 -2l8 -17q0 -2 2 -2q0 -2 2 -4v-4q3 0 3 -2q0 -4 4 -8v-2q0 -2 2 -2v-6l2 -3q0 -2 2 -2v-6v-2 q2 -2 2 -4t2 -4v-2q0 -2 2 -4v-4v-2q0 -4 2 -4v-4v-2q2 -2 2 -11v-2q2 -2 2 -8v-2q0 -6 2 -8v-25q0 -4 2 -6v-4v-789q0 -93 -45 -165q-46 -75 -121 -119q-79 -41 -162 -41q-84 0 -153 39q-65 34 -115 102q-12 11 -18 31q-2 6 -3 10t-3 10q-2 8 -2 19q0 41 30 76q30 30 76 30 h12q2 -2 9 -2q37 -10 61 -37q25 -30 25 -67q0 -30 -17 -58q-14 -23 -45 -38q24 -34 59 -50q38 -18 80 -18q70 0 119 43q47 41 47 100v392q-79 -41 -162 -41q-88 0 -167 47q-71 40 -115 114q-43 73 -43 164zM279 743q0 -69 49 -118q45 -50 114 -50t119 50q47 52 47 118v474 q0 32 -10 61q-10 23 -31 49q-22 27 -55 43q-28 14 -70 14q-40 0 -67 -14q-36 -17 -56 -43q-20 -22 -28 -49q-12 -28 -12 -61v-474z" />
<glyph unicode=":" horiz-adv-x="704" d="M274 811q0 37 26 61q27 25 60 25q34 0 61 -25q25 -24 25 -61q0 -35 -25 -60q-26 -26 -61 -26q-34 0 -60 26t-26 60zM281 92q0 38 25 62q26 24 61 24t60 -24q26 -24 26 -62q0 -34 -26 -60t-60 -26q-35 0 -61 26q-25 25 -25 60z" />
<glyph unicode=";" horiz-adv-x="768" d="M197 -104q39 -15 81 -9q41 6 76 35q45 38 57 92q12 53 -12 105q-7 15 -14 22q-23 29 -61 29h-17q-29 -6 -47 -29t-18 -51q0 -35 23 -58q24 -24 59 -24q10 0 20 2q-18 -50 -53 -78q-41 -31 -94 -36zM240 813q0 37 25 61q27 25 61 25q33 0 60 -25q26 -24 26 -61 q0 -34 -26 -60t-60 -26q-35 0 -61 26q-25 25 -25 60z" />
<glyph unicode="&#x3c;" horiz-adv-x="1024" d="M168 569v93l655 335v-92l-565 -291l565 -288v-93z" />
<glyph unicode="=" horiz-adv-x="1378" d="M266 512v106h883v-106h-883zM266 795v108h883v-108h-883z" />
<glyph unicode="&#x3e;" horiz-adv-x="1024" d="M186 233v93l566 288l-566 291v92l654 -335h2v-93h-2z" />
<glyph unicode="?" horiz-adv-x="800" d="M152 1167v4v11q0 5 1 8t1 8q1 5 5 27q3 16 7 26q29 81 97 131q70 52 157 52q74 0 135 -37q62 -38 96 -97l2 -2l3 -6t3.5 -6.5t3.5 -6.5t3 -7q8 -20 12 -31q10 -34 18 -83q8 -52 4 -107q0 -7 -2 -29q-1 -13 -6 -32q-2 -7 -4.5 -21t-3.5 -17q-15 -52 -36 -93 q-18 -35 -40 -64q-8 -14 -10 -16q-8 -10 -12 -17q-37 -49 -62 -85q-34 -50 -57 -91q-5 -5 -6 -10q-2 -7 -6 -11l-9 -20q-1 -1 -3.5 -8.5t-4.5 -10.5q-6 -14 -10 -23q-5 -11 -10 -28q-18 -43 -19 -80q-2 -14 -2 -21v-24h-41q-16 76 -6 166q12 88 47 158q14 33 33 61 q7 11 17 31q6 13 18 31l4 8l4 8q8 14 13 22q12 20 14 23q2 4 4.5 11.5l3.5 10.5q7 19 8 21q3 12 6 23q11 37 14 72q3 37 3 77q-2 6 -2 8q-1 59 -13 127l-6 25q0 2 -1 3l-1 2l-1 2q-1 2 -1 3q-7 20 -16 35q-22 42 -53 58q-32 16 -56 20q-30 4 -63 -6l-9 -4q-1 0 -8 -7 q-32 -22 -47 -43q-4 -6 -6 -14q-2 -9 -6 -16q39 0 66 -27q28 -28 28 -68q0 -18 -2 -28q-10 -27 -35 -49q-24 -21 -57 -21q-41 0 -69 28t-29 66zM295 86q0 34 24 58t60 24q33 0 57 -24q25 -25 25 -58q0 -41 -37 -68q-24 -18 -53 -12h-6q-29 5 -50 27q-20 21 -20 53zM438 526 l2.5 5t3 7t2.5 7l9 20q0 -3 -1 -4t-1 -4q-5 -7 -8 -14q-6 -16 -7 -17z" />
<glyph unicode="@" horiz-adv-x="1200" d="M98 403q0 111 41 207q24 53 47 85q28 39 60 71q68 66 155 100q42 20 92 28q45 7 95 7t92 -7q47 -8 90 -28q40 -16 78 -42q35 -24 70 -54q62 -62 100 -143q37 -84 37 -183q0 -71 -33 -143q-38 -70 -100 -113q-6 -5 -18 -9l-21 -7q-18 -6 -43 -6h-22q-7 0 -23 2 q-11 4 -22 6q-8 1 -19 6q-43 12 -66 62q-4 10 -9 18q-6 9 -7 19q0 -4 -2 -6q-4 -3 -4 -5q-17 -17 -20 -21q-10 -14 -23 -24q-9 -9 -25 -17q-14 -7 -29 -13q-13 -12 -28 -13q-22 -2 -35 -2q-67 0 -105 37q-40 30 -51 92q-16 55 2 125q16 69 62 143q40 72 98 105q32 18 53 25 q26 8 51 8h2q52 0 93 -23q11 -7 27 -17q10 -6 22 -20q1 4 5 14q3 8 3 11l4 8l111 -2l-6 -20q-1 -3 -28 -87q-13 -40 -24 -83q-1 -5 -3.5 -16t-4.5 -16q-4 -15 -6 -32q-14 -36 -16 -61q-5 -16 -6 -26q-2 -13 -5 -21q-4 -13 -4 -27q0 -26 17 -41l6 -6h2q3 0 13 -4q6 -2 13 -2 h15q9 0 18 4q17 5 45 22q31 19 54 76h2q0 7 4 8q0 6 2 8q16 48 16 95q0 75 -31 149q-17 38 -37 67q-16 23 -49 56q-57 50 -129 80q-33 16 -71 22q-44 7 -78 7q-78 0 -148 -35q-68 -38 -118 -96q-18 -24 -43 -65q-19 -31 -35 -73q-27 -78 -25 -164q0 -33 3 -64q4 -39 7 -60 q5 -25 14 -47q17 -40 19 -44q2 -2 11.5 -13t17.5 -21q23 -27 67 -48q44 -20 114 -25q69 -5 165 30q18 9 26 11q13 3 23 7l19 -35l6 -8l-10 -8q-16 -21 -50 -37q-25 -22 -57 -29q-7 -2 -22 -4.5t-19 -3.5q-20 -4 -47 -4q-192 0 -305 104q-107 107 -107 299zM467 391 q5 -48 14 -74q0 -2 2 -8l4 -8q0 -1 9 -10t23 -13q19 -6 38 -3q21 3 53 22q17 11 33 31q18 22 33 49l8 20q4 10 6 23q0 5 1 7t1 5q3 7 7 21q5 16 5 18q5 24 21 61q3 8 7 26t7 26l-15 15l-20 20q-3 3 -4 5t-4 5q-35 24 -63 23q-31 -2 -51 -11q-22 -11 -45 -37l-7 -6 q-15 -21 -34 -60q-18 -38 -23 -92q-6 -24 -6 -55z" />
<glyph unicode="A" horiz-adv-x="743" d="M27 2q30 16 36 47l3 6l229 1243l2 13l18 96l2 10v15q0 5 -4 12h144l217 -1360l4 -29l2 -8q0 -4 2 -6v-6q16 -26 35 -33h-215q10 16 12 29q1 14 0 30l-10 64l-39 240h-260l-55 -310l-3 -2q-4 -29 15 -51h-135zM221 442h232l-107 676z" />
<glyph unicode="B" horiz-adv-x="735" d="M29 0q37 21 43 57v1327q-6 36 -43 58h243q71 0 140 -29q63 -29 114 -78q50 -51 78 -114q29 -69 29 -140q0 -124 -70 -215q-69 -94 -182 -129h-6q-2 -2 -6 -2q2 -2 12 -2q66 -7 129 -41q57 -32 104 -82q45 -51 68 -110q25 -64 25 -131q0 -74 -29 -144q-30 -68 -82 -116 q-51 -51 -121 -80q-75 -29 -149 -29h-297zM236 74h59q49 0 96 24q43 21 80 64q18 23 30 43q11 19 23 49q19 54 19 115q0 107 -58 186q-60 79 -141 100h-108v-581zM236 815h81q70 18 117 98q47 79 47 185q0 66 -14 112q-15 51 -43 90q-28 40 -64 62q-38 22 -77 22h-47v-569z " />
<glyph unicode="C" horiz-adv-x="595" d="M31 287v862q0 57 22 111q21 49 62 90q38 38 92 61q50 21 112 21q51 0 103 -19q48 -17 86 -51v70h55v-261h-24v41q0 36 -13 68q-19 34 -37 55q-21 18 -55 37q-30 12 -65 12q-72 0 -121 -49q-51 -51 -51 -123v-985q0 -75 49 -125q45 -51 116 -51q45 0 87 25q36 23 59 65h59 q-34 -59 -102 -100q-66 -39 -146 -39q-55 0 -112 23q-54 22 -92 61q-40 38 -62 90q-22 54 -22 111z" />
<glyph unicode="D" horiz-adv-x="706" d="M29 -2q37 22 43 57v1323q-6 36 -43 58h274q13 0 23 -2q91 -7 172 -64q73 -51 123 -131q57 -96 57 -213v-618q0 -118 -57 -213q-23 -40 -55 -73q-34 -34 -70 -59q-79 -55 -177 -63q-8 -2 -18 -2h-272zM236 74h102q52 0 90 26q37 23 61 66q12 42 13 82v938q0 30 -10 69 q0 1 -2 5t-3 5t-2 4t-2 5l-8 16q-23 35 -55 58q-31 20 -76 20h-108v-1294z" />
<glyph unicode="E" horiz-adv-x="665" d="M29 2q37 21 43 57v1315q-6 36 -43 58h608v-179h-21q-11 45 -34 68q-2 2 -2 4q-2 2 -3 2q-2 0 -4 2q-44 44 -94 45h-246v-561h234q20 12 27 23q2 2 3 2t3 2l4 2q22 30 33 69h22v-356h-22q-11 37 -33 66q-4 4 -4 6q-2 2 -3 2t-3 2l-13 12q-9 9 -14 10h-234v-592h246 q31 5 53 15q20 7 41 28l4 4l2 3l2 2t1 2q23 23 34 65h21v-178h-608z" />
<glyph unicode="F" horiz-adv-x="663" d="M29 0q37 21 43 57v1319q-6 36 -43 58h610v-181h-23q-11 41 -34 70q-2 2 -2 4q-2 2 -3 2q-2 0 -4 2q-34 43 -92 45h-248v-563h236q20 12 27 23q2 2 3 2t3 2l4 4q23 30 33 67h22v-358h-22q-7 31 -33 68q-4 4 -4 6q-2 2 -3 2t-3 2l-13 12q-9 9 -14 10h-236v-596 q6 -36 43 -57h-247z" />
<glyph unicode="G" horiz-adv-x="753" d="M31 328v784q0 74 26 127q23 55 70 102q21 21 48 40q20 14 54 32q59 25 125 25q107 0 191 -60q84 -62 117 -155q1 -1 6 -17q2 -2 2 -16q0 -35 -25 -57q-25 -25 -59 -25q-45 0 -66 33q-16 22 -16 49q0 25 16 47q-1 62 -49 106q-46 43 -113 43q-65 0 -110 -45 q-47 -47 -47 -112v-1016q0 -64 47 -111t110 -47q68 0 115 47t47 111v401q-16 41 -53 68q-34 27 -86 27h-12q-8 -2 -15 -2v12h371v-8q-43 -40 -43 -99v-610h-162v45q-77 -45 -166 -45q-70 0 -125 27q-64 28 -102 69q-47 47 -70 105q-26 53 -26 125z" />
<glyph unicode="H" horiz-adv-x="743" d="M29 2q37 21 43 57v1317q-6 36 -43 58h247q-32 -17 -43 -54v-608h275v604q-6 36 -43 58h250q-37 -22 -43 -58v-1317q6 -36 43 -57h-250q37 21 43 57v637h-275v-637q6 -36 43 -57h-247z" />
<glyph unicode="I" horiz-adv-x="305" d="M29 0q37 21 43 57v1321q-6 36 -43 58h247q-29 -17 -40 -54v-1325q6 -33 40 -57h-247z" />
<glyph unicode="J" horiz-adv-x="686" d="M25 283v69q0 42 28 70q27 27 68 27q11 0 14 -3q38 -5 60 -30q24 -28 24 -64v-16q0 -37 -24 -64q-22 -26 -60 -32v-23q0 -66 45 -111q45 -49 109 -51q60 1 110 45q45 39 56 101v331q-2 0 -2 3v227h2v647q-17 21 -35 27h237q-31 -12 -41 -33v-1063q0 -10 -2 -18v-39 q0 -57 -22 -111q-27 -56 -64 -90q-40 -40 -94 -62t-115 -22q-75 0 -135 33q-64 32 -104 86q-5 5 -6 8l-4 8q-10 10 -11 14q-34 59 -34 136z" />
<glyph unicode="K" horiz-adv-x="794" d="M31 2q37 21 43 57v1319q-6 36 -43 58h248q-2 -2 -4 -2q-1 0 -3 -2t-3 -2l-3 -3q-22 -12 -28 -36v-2q-2 -2 -2 -7v-647l2 -4l75 168l195 428l22 47l2 6q-2 45 -47 56h199q-29 -1 -47 -27l-6 -12l-49 -109l-211 -467l305 -737l6 -12q29 -59 86 -66v-4h-326q29 0 50 21 q18 18 18 47v6l-94 225l-135 324l-45 -99v-467q6 -36 43 -57h-248z" />
<glyph unicode="L" horiz-adv-x="737" d="M29 2q37 21 43 57v1317q-6 36 -43 58h247q-2 -2 -3 -2t-3 -2l-3 -3q-1 0 -3 -2q-22 -12 -28 -36v-3q-3 -3 -3 -6v-1296h381l19 12l8 8l8 9q2 2 3 2t3 2q0 2 4 6q3 5 11 15q2 2 10 16q11 17 12 34h23v-186h-686z" />
<glyph unicode="M" horiz-adv-x="741" d="M29 2q35 23 41 57v1315q-6 40 -41 58h229l113 -670l127 670h215q-28 -16 -39 -46v-2q-2 -2 -2 -6v-1319q0 -2 2 -2v-6q7 -31 39 -49h-236q27 15 37 43q2 2 2 8q0 4 2 6v1067l-12 -63l-96 -502l-4 -14l-19 -103h-127l-49 318l-61 368v-1071q0 -2 2 -4v-4q7 -32 38 -49 h-161z" />
<glyph unicode="N" horiz-adv-x="747" d="M29 -2q15 9 26 27q11 21 13 30q2 2 2 13v1298q0 8 -2 10q-1 15 -13 33q-7 14 -26 25h182l385 -1133v1049q0 33 -8 49q-17 28 -33 35h164q-35 -18 -41 -58v-1378h-152l-372 1104v-1047q1 -15 12 -30q10 -17 27 -27h-164z" />
<glyph unicode="O" horiz-adv-x="733" d="M31 334v766q0 71 26 129t74 106q43 43 107 72q56 27 129 27q71 0 131 -27q38 -20 56 -32q30 -20 50 -40q44 -44 72 -106q26 -58 26 -129v-766q0 -73 -26 -131q-29 -64 -72 -107q-20 -20 -50 -40q-11 -7 -56 -31q-60 -27 -131 -27q-73 0 -129 27q-66 30 -107 71 q-47 47 -74 107q-26 58 -26 131zM203 213q0 -36 12 -66t35 -53q25 -25 51 -35q25 -14 61 -14q71 0 117 49q47 52 47 119v1001q0 67 -47 119q-46 49 -117 49q-34 0 -61 -12q-30 -16 -51 -37q-23 -23 -35 -53t-12 -66v-1001z" />
<glyph unicode="P" horiz-adv-x="655" d="M29 -2q35 18 41 57q0 4 2 6v5v1298v6q-2 2 -2 4q-6 40 -41 58h295q57 0 120 -23q59 -23 97 -61q41 -41 65 -91q25 -55 25 -110v-162q0 -58 -25 -111q-24 -52 -65 -90q-38 -38 -97 -61q-63 -23 -120 -23h-91v-645q6 -34 41 -57h-245zM233 768h62q43 0 84 18q38 17 67 52 q32 37 48 73q16 44 16 93v131q0 46 -16 90q-13 32 -48 75q-32 34 -67 50q-41 18 -84 18h-62v-600z" />
<glyph unicode="Q" horiz-adv-x="759" d="M29 332v766q0 73 26 131q28 62 74 108q20 20 50 40q15 10 59 32q60 27 133 27q71 0 133 -27q40 -20 58 -32q30 -20 50 -40t40 -50q12 -18 32 -58q27 -60 27 -131v-766q0 -56 -15 -96q0 -1 -1.5 -5t-2.5 -6t-2.5 -5.5t-1.5 -4.5l-4 -12q-1 -2 -2.5 -5.5t-1.5 -4.5 q-8 -12 -12 -27l-1 -2q-1 -2 -2 -2l-4 -4q-41 -66 -104 -107l-18 -12q-7 -4 -21 -10q-1 -1 -3.5 -2t-4.5 -1q-1 0 -3.5 -1t-4.5 -2q-1 -1 -4 -3t-5 -2t-5.5 -2t-4.5 -2q11 -38 37 -67q25 -25 58 -25q38 0 65 33q24 30 35 84h51q-5 -74 -53 -119q-53 -47 -127 -47 q-35 0 -64 10q-25 11 -45 31q-17 17 -30 39q-1 2 -5.5 9t-6.5 11l-9 21h-37q-11 0 -26 4q-29 2 -56 12q-6 1 -26 10q-4 1 -27 11l-1 1q-2 1 -4.5 2.5t-4.5 2.5t-5 3q-4 2 -5 3q-5 0 -9 4q-74 50 -114 121q-45 72 -45 164zM203 211q0 -8 2 -10v-11q2 -6 2 -9t2 -9q0 -7 4 -18 v-2l12 12q3 4 11 10q38 37 96 37q59 0 102 -43q35 -35 41 -84q2 0 2 2q24 24 35 43v2q9 21 13 35q6 23 7 41v1010q0 66 -47 118q-49 49 -116 49q-72 0 -117 -49q-49 -49 -49 -118v-1006zM242 111q8 -20 30 -37q36 -25 76 -31h27q0 12 -2 14q-10 43 -29 68q-21 27 -47 27 q-31 0 -55 -41z" />
<glyph unicode="R" horiz-adv-x="698" d="M29 -2q26 16 37 37q2 2 2 4l2 6q0 8 2 10v1323q-6 36 -43 58h245h25q8 -2 20 -2q67 -10 123 -39q56 -33 101 -80q41 -47 65 -109q25 -64 25 -129q0 -108 -55 -190q-52 -83 -146 -131v-2q6 -2 10 -3q8 -2 11 -3q1 0 4 -2t5 -3t5 -2t4 -2q82 -39 125 -116q37 -61 37 -138 v-434q6 -30 37 -53h-242q17 8 27 22q11 11 16 35v428q0 66 -41 113q-43 45 -104 55h-88v-600q11 -35 41 -53h-250zM238 811h79q70 18 117 98q45 77 45 183q0 60 -14 106q-16 50 -39 88q-25 40 -57 62q-34 26 -70 28h-27l-34 2v-567z" />
<glyph unicode="S" horiz-adv-x="749" d="M31 1085v15q0 70 18 131q12 33 33 63q0 5 4 9q3 3 5 6t9 10q30 34 58 55l12 6q35 21 78 37q43 15 104 15h8q15 0 27 -3q77 -5 117 -24q16 -8 39 -20q15 -8 26 -19q19 -4 25 -2q16 0 22 41h72v-334h-72v17q0 82 -18 133q-2 2 -2 8q-2 2 -2 3t-2 3q-10 28 -29 53 q-23 36 -76 64q-50 22 -104 22q-41 0 -70 -8q-68 -18 -114 -70q-45 -51 -45 -118q2 -6 2 -13q0 -8 2 -14q4 -21 12 -43q6 -18 23 -41l4 -4q0 -2 2 -4q36 -57 92 -113l4 -4l2 -1l2 -2t2 -1q22 -20 30 -28q17 -17 27 -25l48 -49l18 -19q11 -11 18 -16l19 -19q11 -11 16 -18 q73 -77 111 -123q25 -32 41 -57q24 -38 35 -56l4 -8l4 -8l4 -8l4 -8q20 -38 31 -74q10 -43 10 -82q0 -41 -10 -90l-19 -43q-9 -21 -10 -23q-4 -8 -14 -22q-22 -37 -62 -72q-4 -4 -6 -4q-45 -39 -104 -61q-63 -23 -125 -23q-58 0 -109 18q-24 7 -49 20q-30 16 -45 26 q-6 2 -8 2t-8 2q-7 0 -13 -2q-12 0 -18 -17v-49h-86v360h86v-108q2 -6 2 -9t2 -9t2 -10q0 -3 2 -9l6 -12q24 -53 80 -86q51 -33 123 -33q42 0 84 16q37 15 67 45q32 32 48 64q16 38 16 80q0 23 -6 45q0 3 -1 6l-2 6t-1 4q-1 2 -2.5 5.5t-1.5 4.5q-1 1 -2.5 5t-1.5 5 q-1 2 -3 5t-2 4q-9 9 -10 14q-3 4 -8 12.5t-7 12.5q-7 11 -18 22v2q-10 10 -12 17l-10 10l-10 10q-16 18 -56 56l-61 61q-19 19 -28 27t-25 22l-9 8q0 1 -2 2l-2 1l-4 4q-47 44 -73 73q-37 40 -56 74q-10 14 -15 22q-3 4 -8 12.5t-7 12.5q-12 16 -15 23q-4 8 -12 22 q-20 36 -37 88q-14 41 -14 96z" />
<glyph unicode="T" horiz-adv-x="737" d="M25 1315v123h686v-123q0 18 -13 31q-12 12 -28 12h-213v-1297q1 -15 12 -32q2 -3 5 -8.5t4 -7.5q2 -4 14 -11l-35 2v-2h-195q29 23 35 57v1299h-231q-17 0 -29 -12t-12 -31z" />
<glyph unicode="U" horiz-adv-x="792" d="M29 1436h245q-37 -22 -43 -58v-1159q0 -32 15 -59q11 -25 35 -49q21 -21 51 -33q27 -12 61 -12q71 0 117 45q47 47 47 108v1165q-8 34 -41 52h248q-37 -22 -43 -58v-1054q0 -66 -25 -125q-28 -61 -69 -105q-45 -45 -105 -69q-56 -27 -127 -27q-69 0 -125 27 q-64 28 -102 69q-47 47 -70 105q-26 53 -26 125v1054q-6 36 -43 58z" />
<glyph unicode="V" horiz-adv-x="741" d="M27 1438h233q-26 -20 -24 -54v-4l4 -26l14 -88l143 -897l117 622v4l16 90l52 279l4 16v9q0 25 -13 49h142q-26 -21 -43 -54v-4l-43 -227l-39 -215l-35 -176l-121 -647l-20 -119h-125l-49 319l-144 902l-26 163q-8 41 -43 58z" />
<glyph unicode="W" horiz-adv-x="1085" d="M29 1438h233q-26 -20 -24 -54v-4l4 -26l14 -86l143 -897l97 512l-56 334l-24 163l-2 2q-6 39 -41 56h231q-12 -11 -18 -25q-6 -12 -6 -29l2 -4l2 -18l2 -8l14 -86l25 -154l116 -743l117 620q0 2 2 4v2l17 88l51 281q2 2 2 14q2 2 2 11q0 26 -14 47h141q-28 -18 -41 -54 l-2 -4l-41 -227l-41 -213v-2l-33 -176l-121 -647l-22 -117h-123l-49 319l-51 320l-99 -522l-20 -117h-125l-49 319l-144 900l-26 163v2q-11 40 -43 56z" />
<glyph unicode="X" horiz-adv-x="679" d="M29 2v2q40 11 47 49l-2 -4l196 596l-194 744q-10 33 -43 43v2h243q-24 -11 -30 -43l121 -459l153 467q-8 28 -22 35h153v-2q-41 -11 -47 -50v7l-198 -605l192 -735q7 -37 47 -43v-2h-49v-2h-197v2q25 6 31 37l-121 457l-149 -457q1 -15 8 -23q7 -11 12 -16h-151z" />
<glyph unicode="Y" horiz-adv-x="765" d="M27 1434h229q-27 -21 -25 -54l2 -4l5 -26v-9l159 -634l219 679v3q0 23 -12 45h135q-26 -18 -37 -43l-268 -832v-561h-164v555l-207 823l-8 29q-11 19 -28 29z" />
<glyph unicode="Z" horiz-adv-x="708" d="M29 -2v90l4 12l22 60l15 37l327 864h-2l19 49l32 82l23 65l4 9l-2 -2l18 49l11 28l6 19h-426q-45 0 -51 -45v125h651v-86l-14 -41l-23 -56l-401 -1060l-13 -35l-18 -51l-12 -33h422q22 0 38 16q20 20 21 37v-133h-651z" />
<glyph unicode="[" horiz-adv-x="921" d="M250 2v84v1268v82h162h202v-82h-202v-1268h202v-84h-202h-162z" />
<glyph unicode="\" horiz-adv-x="991" d="M154 1434h135l538 -1436h-135z" />
<glyph unicode="]" horiz-adv-x="937" d="M211 -2v84h201v1268h-201v82h201h163v-82v-1268v-84h-163h-201z" />
<glyph unicode="^" d="M195 903l237 531h72l239 -531h-81l-193 447h-2l-193 -447h-79z" />
<glyph unicode="_" horiz-adv-x="1021" d="M283 -2v43h485v-43h-485z" />
<glyph unicode="`" horiz-adv-x="512" d="M162 1436h104l94 -154h-65z" />
<glyph unicode="a" horiz-adv-x="684" d="M61 233v13q0 45 19 94q15 40 47 76l12 15l4.5 4.5l5.5 5.5l5 5l30 25l17 12q3 1 6 4l4 5q2 0 4 2q5 5 10 6q2 2 4 2l31 18l12 8l13 9q2 2 4 2l2 2l8 4q3 1 8 6q3 1 6 4t6 4l25 19q6 6 10 9q8 6 11 9l24 18l9 9q2 1 5 4t5 4q1 1 4 3.5t5 4.5l4 4t5 4v105q-10 43 -43 73 q-32 26 -82 31h-25q-8 -2 -12 -2t-10 -2q-52 -15 -80 -66q34 0 62 -24q24 -28 24 -62q0 -17 -6 -32q-10 -22 -31 -37q-23 -17 -49 -17q-32 0 -53 21q-25 22 -31 49v4q-2 0 -2 2v4v11q0 2 2 16q0 20 8 39q4 15 23 45q17 23 45 45q4 4 6 4v2q2 1 4 2.5t3 1.5t3 1.5t4 2.5l8 4 l2 2q3 1 5 2q2 0 4 2q10 6 14 7q3 0 14 4q51 16 99 16q59 0 94 -14h4q2 -2 4 -2l21 -9q4 -1 10.5 -5t9.5 -5q14 -8 19 -12q10 -8 16 -14q32 -32 55 -70q12 -24 16 -42q6 -28 7 -44v-600q0 -24 14 -35q15 -14 37 -14q2 0 4 2h2h8q-9 -9 -32 -23q-3 -1 -11 -3q-4 -1 -10 -3 l-20 -4h-11q-6 -2 -12 -2h-4q-15 0 -23 2q-3 1 -7 2t-6.5 1.5t-5 1.5t-3.5 1q-47 23 -68 60q-34 -34 -69 -50q-41 -18 -86 -18q-23 0 -47 6q-62 12 -109 62q-46 45 -61 116q-7 24 -7 47zM201 242q-1 -11 -1 -21q0 -32 9 -61q1 -21 12 -39q13 -31 39 -49q25 -19 57 -19 q44 0 74 33q31 34 31 80v403l-4 -4l-4 -4l-8 -8q-4 -1 -11 -8l-4 -4l-2 -2t-2 -1q-1 -1 -4 -3l-4 -4l-2 -2t-2 -1q-7 -2 -15 -10q-5 -5 -8 -6t-8 -6l-2 -2q-2 0 -4 -2l-4 -4l-6 -6q-7 -2 -9 -9l-6 -6q-16 -17 -34 -41q-7 -10 -29 -45q-10 -16 -14 -24q-2 -4 -7 -13t-8 -14 q-6 -12 -6 -23q-2 0 -2 -2q-11 -35 -12 -73z" />
<glyph unicode="b" horiz-adv-x="706" d="M29 1432v2h219v-584q62 49 151 49q60 0 101 -20q24 -11 44 -24q22 -14 38 -30q31 -33 55 -80q20 -41 20 -98v-397q0 -55 -20 -96q-23 -48 -55 -80q-34 -34 -82 -56q-41 -20 -101 -20q-89 0 -151 49v-49h-215v2q34 6 51 41v1335q-5 23 -18 37q-16 14 -37 19zM248 170 q6 -47 39 -74q30 -30 78 -30q50 0 84 34t34 84v535q0 50 -34 84q-35 35 -84 35q-44 0 -78 -29q-33 -30 -39 -76v-563z" />
<glyph unicode="c" horiz-adv-x="661" d="M68 287v327q0 59 22 113q21 49 62 90q38 40 90 62q54 22 110 22h35q48 0 88 -27q2 -2 4 -2q1 0 3 -1t3 -1l2 -1q2 -1 4.5 -2.5t4.5 -2.5q2 -2 4 -2l2 -2q16 -8 30 -8q11 0 17 8v41h51v-213h-51v21v4q-2 2 -2 4v2q-2 0 -2 2l-6 18q0 1 -2.5 7t-4.5 10q-4 9 -16 28 q-8 13 -18 23q-17 17 -43 33q-21 9 -33 10q-14 2 -19 3t-18 1q-43 0 -76 -18q-35 -20 -57 -48q-17 -31 -23 -61v-530q1 -60 50 -105q44 -43 108 -43q65 0 111 43q44 43 49 105h51q0 -3 -1.5 -10.5t-2.5 -11.5q-1 -9 -6 -25q-12 -39 -37 -70l-12 -12q-33 -33 -70 -48 q-20 -8 -57 -14q-29 -6 -58 -6h-2q-95 0 -168 55q-74 54 -102 142q-14 35 -14 90z" />
<glyph unicode="d" horiz-adv-x="718" d="M66 256v395q0 58 20 99q21 45 55 79t82 56q45 18 99 18q84 0 151 -47v512q0 10 -2 12q-5 23 -18 37q-16 14 -37 19v2h219v-1391q17 -35 51 -41v-2h-213v49q-15 -9 -34 -19q-24 -12 -38 -16q-35 -14 -79 -14q-56 0 -99 21q-49 23 -82 55t-55 80q-20 41 -20 96zM238 188 q0 -48 34 -82t82 -34q46 0 80 30q33 27 39 74v563q-6 46 -39 76q-35 29 -80 29q-47 0 -82 -35q-34 -34 -34 -84v-537z" />
<glyph unicode="e" horiz-adv-x="712" d="M82 283v335q0 57 22 111q21 49 62 90q39 39 88 60q54 22 111 22h2q54 0 108 -22q25 -10 48 -26q14 -10 42 -34q41 -41 62 -90q20 -47 20 -111v-192h-403v-229q0 -5 2 -7v-8q15 -55 61 -92q46 -39 103 -41h10q66 0 115 43q49 39 61 105h47q-29 -79 -90 -129 q-33 -33 -70 -48q-20 -8 -57 -14h-6h-2q0 -2 -2 -2h-10q-2 -2 -7 -2h-22q-2 -2 -8 -2h-4q-54 0 -111 23q-51 21 -88 61q-42 39 -62 88q-22 54 -22 111zM240 508h256v223q0 49 -33 82q-35 35 -82 41h-14q-51 0 -91 -35q-36 -36 -36 -88v-223z" />
<glyph unicode="f" horiz-adv-x="628" d="M25 817v80h161v334q0 38 17 78q15 35 45 65q28 28 65 43q40 17 80 17q62 0 113 -33q48 -34 74 -88l8 -17q6 -6 4 -6q2 -7 6 -14q0 -2 2 -2v-4q2 -6 2 -23q0 -35 -22 -63q-24 -27 -60 -27q-24 0 -45 14q-19 16 -26 33q-11 22 -11 43q0 28 17 51q17 24 39 31q-25 31 -62 31 q-34 0 -57 -23q-25 -25 -25 -57v-383h203v-80h-203v-756q6 -35 43 -59h-248q35 23 41 59v756h-161z" />
<glyph unicode="g" horiz-adv-x="770" d="M61 -291q0 35 25 58q24 24 59 24q13 0 19 -2l7 -2q4 -1 7 -2q18 -6 35 -27q9 -14 14 -41v-8q0 -33 -22 -59q-25 -25 -60 -25h-10q-1 0 -3 1t-3 1l-6 2h-4q17 -56 65 -90q50 -37 119 -37q77 0 135 47q56 45 56 115q0 22 -11 53q0 2 -2 4q-16 43 -51 70q-43 32 -88 39 q-11 4 -20 4h-29q-2 -2 -8 -2q-7 0 -13 -2q-10 -2 -18 -3q-5 -1 -16 -1h-2q-37 0 -70 12q-34 12 -55 33q-24 22 -35 43q-13 26 -13 53q0 35 23 70q23 32 59 49q-37 36 -59 92q-23 57 -23 111v313q0 58 23 115q22 53 63 94q37 37 93 61q57 23 114 23q80 0 146 -39q7 50 41 84 q33 33 78 33q46 0 79 -33t39 -86q2 -6 2 -16q-2 -46 -45 -52h-10q-20 0 -37 17q-16 16 -16 39q0 29 20 43q-16 12 -35 12q-27 0 -45 -18q-17 -17 -28 -52q49 -42 78 -98q28 -60 28 -127v-313q0 -99 -59 -176q-60 -80 -152 -107q-6 -2 -9 -2t-9 -2t-9 -2q-4 0 -10 -2 q-8 -2 -12 -2t-10 -2h-25q-89 0 -161 51q-19 -24 -29 -51q-2 -14 2 -27q4 -10 14 -14q10 -2 33 8q2 2 4 2l2 2q2 1 5 2l5 2q59 25 123 25h27q15 0 25 -2l22 -6q6 -2 10 -3q8 -2 11 -3q85 -28 143 -97q55 -71 55 -159v-7q-5 -59 -24 -104q-28 -50 -64 -84q-39 -33 -92 -55 q-49 -21 -113 -21q-49 0 -100 17q-46 18 -88 49q-38 29 -64 71q-14 20 -22 43t-12 45q-7 18 -7 31zM229 172q0 -38 21 -66q6 -12 14 -20q41 -41 98 -41h15q4 1 10.5 2.5t7.5 1.5q3 1 8.5 2.5t6.5 1.5q38 16 61 47q23 34 23 72v555q0 53 -39 92q-40 37 -93 37q-56 0 -94 -37 q-39 -39 -39 -92v-555z" />
<glyph unicode="h" horiz-adv-x="733" d="M29 1434v2h219v-584q62 49 151 49q60 0 101 -20q24 -11 44 -24q22 -14 38 -30q32 -34 55 -79q20 -41 20 -99v-606q17 -35 52 -41v-2h-277v2q25 1 43 27q2 2 2 4t2 4t2 3t2 3v678q0 50 -34 84q-35 35 -84 35q-44 0 -78 -29q-33 -30 -39 -76v-694q15 -33 49 -39v-2h-264v2 q34 6 51 41v1335q-5 23 -18 37q-16 14 -37 19z" />
<glyph unicode="i" horiz-adv-x="303" d="M27 0q37 21 43 57v787q-6 37 -43 59h43v2h163v-848q6 -36 43 -57h-249zM63 1077q0 37 27 64q24 24 62 24q34 0 63 -24q25 -30 25 -64q0 -36 -25 -61q-27 -27 -63 -27q-38 0 -62 27q-27 24 -27 61z" />
<glyph unicode="j" horiz-adv-x="415" d="M-135 -303q16 35 37 61q16 16 20 19q21 12 45 12q37 0 64 -27q24 -28 24 -67v-14q-2 -6 -2 -8q0 -1 -2 -7q-15 -51 -65 -61h-19q-23 0 -43 10v-27q0 -26 17 -49q16 -19 41 -33l10 -4q8 -2 13 -2t15 -2q12 0 17 1q7 1 18 3q15 1 35 21q9 9 10 14q2 7 6 12q33 45 33 111 v1157q-1 29 -26 57q-28 23 -56 29v2h332q-35 -6 -57 -28q-26 -29 -27 -60q-2 -6 -2 -14v-1026q0 -70 -18 -127q-18 -56 -52 -103q-33 -43 -75 -71q-44 -24 -97 -29h-12h-6q-2 2 -6 2q-13 0 -21 2q-6 2 -10 3t-10 3q-1 0 -4.5 1.5t-5.5 2.5q-6 1 -15 7l-8 4q-2 0 -4 2 q-7 3 -27 16q-11 7 -22 18l-19 25l-8 14l-6 13l-6 18q-2 6 -3 10q-2 8 -3 11q-9 29 -9 53t9 45zM125 1081q0 37 27 64q24 24 61 24q35 0 63 -24q27 -27 27 -64q0 -36 -27 -63t-63 -27q-37 0 -61 27q-27 27 -27 63z" />
<glyph unicode="k" horiz-adv-x="671" d="M29 -2q37 21 43 57v1323q-6 36 -43 58h252q-33 -15 -43 -47v-912l16 27l29 51l77 131l27 49l70 123q0 16 -4 27l-7 11h172q-3 -1 -8 -2t-6 -1q-2 -1 -5.5 -2.5t-4.5 -1.5q-2 -2 -4 -2q-4 0 -6 -2q-18 -11 -29 -23l-4 -4l-6 -6l-10 -18l-140 -244l164 -436l39 -99l8 -24 q17 -23 41 -29v-2h-29v-2h-219v2q20 6 31 35l-139 371l-53 -91v-264q11 -35 41 -53h-250z" />
<glyph unicode="l" horiz-adv-x="305" d="M29 0q37 21 43 57v1321q-6 36 -43 58h209v-1383q7 -31 38 -53h-247z" />
<glyph unicode="m" horiz-adv-x="1128" d="M31 0q37 21 43 57v787q-6 35 -43 57h207v-143q22 65 77 104q51 39 125 39h23q6 -2 10 -2t10 -2h4q0 -2 2 -2q54 -12 95 -47q42 -37 57 -88l6 12q2 2 2 4t2 4q0 6 2 8q28 52 80 82q51 31 111 31q26 0 49 -6q74 -17 119 -74t45 -135v-633q11 -35 41 -53h-246q35 23 41 57 v617q-4 44 -39 82q-33 32 -86 32q-28 0 -47 -8q-24 -11 -39 -26l-4 -4q-2 -2 -14 -17q-6 -7 -11 -16v-4q-2 -2 -2 -6q-2 -2 -2 -5q0 -2 -2 -4v-641q6 -36 43 -57h-250q37 21 43 57v645q-17 40 -45 62q-34 24 -73 24q-55 0 -91 -36t-36 -90v-605q6 -36 43 -57h-250z" />
<glyph unicode="n" horiz-adv-x="753" d="M29 2q39 21 45 57v787q-6 39 -45 57h219v-143q21 64 82 104q57 39 131 39h24q6 -2 11 -2q4 0 10 -2h6q0 -2 2 -2q42 -7 82 -35q36 -26 57 -59q0 -1 1 -2.5t2 -2.5t1 -2t2 -3.5t3 -4.5l4 -8l4 -8q10 -29 10 -88v-614q0 -21 14 -41q6 -9 31 -27h-262q37 21 43 57v646 q-16 38 -47 61q-36 25 -78 25q-56 0 -94 -37q-39 -38 -39 -90v-605q6 -36 45 -57h-264z" />
<glyph unicode="o" horiz-adv-x="710" d="M29 330v245q0 74 26 127q23 58 70 105q21 21 48 40q20 14 54 32q57 24 127 24q68 0 129 -24q61 -29 105 -72q40 -43 69 -105q25 -62 25 -127v-245q0 -68 -25 -127q-29 -61 -69 -105q-45 -45 -105 -69q-60 -27 -129 -27q-72 0 -127 27q-64 28 -102 69q-47 47 -70 105 q-26 53 -26 127zM193 223q0 -70 49 -119q45 -49 114 -49q70 0 119 49q47 52 47 119v465q0 67 -47 119q-49 49 -119 49q-69 0 -114 -49q-49 -49 -49 -119v-465z" />
<glyph unicode="p" horiz-adv-x="847" d="M76 -551q37 21 43 57v1338q-6 36 -43 57h209v-43q4 4 8 4q66 39 151 39q69 0 129 -24q61 -29 105 -72t72 -105q24 -62 24 -129v-249q0 -70 -24 -127q-28 -61 -72 -105t-105 -72q-53 -26 -129 -26q-84 0 -157 47v-533q6 -33 41 -57h-252zM287 180q12 -54 57 -92 q40 -39 102 -39q67 0 119 49q49 49 49 117v467q0 38 -12 68q-19 34 -37 55q-21 18 -55 37q-30 12 -64 12q-62 0 -102 -39q-45 -39 -57 -98v-537z" />
<glyph unicode="q" horiz-adv-x="849" d="M55 324v249q0 69 27 129q23 58 70 105q44 44 106 72q57 24 127 24q87 0 156 -39q4 0 8 -4v43h207q-37 -21 -43 -57v-1307q0 -16 12 -28q13 -13 31 -13q5 0 20 4q-19 -25 -41 -37q-28 -16 -61 -16q-53 0 -90 37t-37 90v463q-20 -13 -36 -19q-26 -10 -40 -14 q-41 -12 -86 -12q-74 0 -127 26q-62 28 -106 72q-46 41 -70 105q-27 55 -27 127zM215 217q0 -69 51 -119q49 -49 117 -49q61 0 106 39q46 39 58 94v539q-12 58 -58 98q-46 37 -106 37q-68 0 -117 -49q-51 -49 -51 -121v-469z" />
<glyph unicode="r" horiz-adv-x="673" d="M29 0q37 22 43 57v791q-6 35 -43 57h207v-74q34 34 79 56q44 18 95 18q79 0 139 -45q62 -47 86 -115q14 -25 14 -53v-6q-2 -2 -2 -4q-2 -45 -35 -74q-32 -28 -73 -28q-31 0 -56 14q-23 16 -39 41q-16 26 -16 57q0 51 35 80q-16 36 -43 57t-60 21q-50 0 -88 -51 q-36 -50 -36 -125v-625q7 -33 43 -49h-250z" />
<glyph unicode="s" horiz-adv-x="636" d="M70 647v21q0 31 4 57q2 6 2 10q0 5 2 13q2 6 3 10t3 10q21 55 82 94q56 37 133 37h12q35 0 54 -8q2 -1 21 -8q16 -6 26 -9q1 0 4 -2t5 -2q1 0 5 -1.5t6 -2.5q33 -10 41 -8q6 0 12 6v33h56v-211h-49v10q0 56 -35 97q-49 55 -131 55h-7q-26 0 -55 -10q-68 -27 -90 -105 q-4 -12 -2 -39q5 -31 35 -61q15 -10 16 -14l3 -3q1 0 3 -2t3 -2q2 0 4 -2q4 -4 8 -4q7 -7 12 -8q1 -1 4 -3q0 -1 2 -2l2 -1q2 -2 10 -8l13 -9l24 -16l2 -1q2 -1 4.5 -2.5t4.5 -2.5q3 -1 10 -8l12 -6q3 -1 6 -4q4 -5 6 -5l4 -4q44 -28 84 -63q0 -1 2 -2t3 -1q1 -1 4 -3l6 -6 q13 -13 19 -18l18 -15q2 -3 7 -9t8 -8q1 -1 13 -16q26 -32 31 -39q1 0 2 -2l1 -2l1 -2q1 -2 2 -2q0 -6 4 -10q5 -10 6 -18q1 -3 2 -8t2 -7q10 -24 11 -35q2 -10 3 -18q1 -5 1 -19q0 -59 -35 -112q-34 -52 -94 -80l-2 -2h-2q-2 -2 -4 -2h-2q-2 -2 -5 -2l-2 -2h-2v-3 q-2 -2 -4 -2q-4 0 -6 -2l-5 -2q-3 -1 -5 -2q-1 0 -37 -8q-21 -5 -47 -6h-21q-45 0 -84 12q-34 7 -71 31h-4q-4 0 -6 -2v-39h-62v193h62v-9h2v-4l3 -9l5 -15q1 -22 18 -43q22 -30 60 -45q40 -19 79 -19q42 0 82 19q37 15 60 45q19 29 19 54q0 6 -1 11q-2 29 -16 55 q-16 26 -31 41l-22 23q-2 0 -2 2h-2l-25 18q-10 6 -14 9q-2 2 -7.5 4.5t-7.5 3.5q-5 1 -10 6l-12 8q-1 1 -5 3.5t-6 4.5q-13 6 -22 15l-43 30q-3 2 -10 7.5t-10 7.5t-9.5 7t-9.5 7q-1 1 -4 3q-1 1 -4 3q-4 3 -14 13l-13 12q-41 37 -67 74l-7 14q-1 3 -4 6t-4 6 q-24 37 -28 86z" />
<glyph unicode="t" horiz-adv-x="544" d="M25 815v80h165v448q-2 34 -24 58q-23 28 -55 29v2h239v-537h168v-80h-168v-698q0 -26 19 -45t45 -19q28 0 47 25l8 16q4 7 6 19h35q-7 -18 -16 -33v-2l-5 -4l-4 -8l-10 -11v-2q-2 0 -6 -4v-2q-2 0 -6 -4l-6 -6q-2 0 -2 -4h-2l-4 -4h-3l-2 -2q-2 0 -4 -2l-2 -2l-4 -3h-2 l-4 -4h-4q0 -2 -2 -2h-2q-2 -2 -4 -2l-2 -2h-4l-2 -2q-5 0 -7 -2h-6l-2 -2h-8q0 -2 -2 -2h-14q0 -2 -2 -2h-13q-69 0 -114 49q-50 45 -50 113v653h-165z" />
<glyph unicode="u" horiz-adv-x="755" d="M29 901h235q-33 -21 -39 -53v-578q0 -88 45 -145q46 -59 111 -59q55 0 98 45q46 47 53 114v629q-8 31 -36 47h229q-21 -12 -27 -24q-10 -17 -12 -33q-2 -2 -2 -10v-764q0 -11 2 -13q1 -15 12 -30q10 -17 27 -27h-193v49q-71 -49 -155 -49q-61 0 -119 29q-59 27 -98 73 q-44 50 -66 109q-24 61 -24 133v500q-6 39 -41 57z" />
<glyph unicode="v" horiz-adv-x="679" d="M27 899v2l36 2h207v-2q-5 -1 -18 -14q-7 -12 -12 -29l131 -670l155 674q-8 33 -30 39v2h125l32 -2v-2q-29 -6 -41 -29l-198 -868h-172l-170 860q-12 31 -45 37z" />
<glyph unicode="w" horiz-adv-x="997" d="M29 901v2l37 2h206v-2q-5 -1 -18 -14q-7 -12 -12 -29l131 -670l80 342l-66 332q-12 31 -45 37v2l37 2h207v-2q-7 -2 -19 -14q-7 -12 -12 -29l25 -133l106 -537l156 674q-7 33 -31 39v2h125l33 -2v-2q-29 -6 -41 -29l-199 -868h-172l-65 332l-76 -332h-172l-170 860 q-12 31 -45 37z" />
<glyph unicode="x" horiz-adv-x="622" d="M29 2v2q13 4 32 23l181 381l-168 456q-12 26 -43 37v2h243q-20 -7 -26 -35l92 -254l123 260q-6 18 -23 29h148v-2q-28 -11 -33 -20l-176 -373l172 -467q16 -30 43 -37v-2h-236q17 11 23 31l-98 266l-127 -264q11 -26 28 -33h-155z" />
<glyph unicode="y" horiz-adv-x="753" d="M29 -391q1 21 22 37q16 16 39 16q29 0 47 -18q19 -19 19 -45q0 -21 -17 -43q-20 -20 -43 -21q35 -2 60 12q23 14 34 50l76 276l19 74l-168 778l-37 133q-12 26 -37 45h137q-5 -9 -10 -29l37 -172l53 -235l16 -86l56 -254l117 438l65 262l2 17l4 6q0 33 -26 53h235 q-21 -12 -33 -33l-139 -553l-25 -100q0 -17 -6 -35l-43 -157l-12 -48l-12 -49l-13 -43l-84 -305q-18 -72 -77 -112q-41 -26 -85 -26q-23 0 -46 7q-49 11 -78 43q-34 35 -41 80q-6 15 -6 27v10z" />
<glyph unicode="z" horiz-adv-x="829" d="M70 2v78l2 2l8 16l12 19l4 8l27 45l18 31l267 458l55 99l14 22l25 43h-402q-24 0 -28 -28h-2v108h606v-82l-379 -651l-25 -45l-6 -8v-2h-2l-16 -29h387q33 0 39 31h2v-115h-606z" />
<glyph unicode="{" horiz-adv-x="929" d="M186 674v92q48 0 75 12t43 31q17 20 21 42q5 27 5 46q0 43 -4 76q-2 20 -11 76l-8 73q-4 33 -4 74q0 124 72 180q73 56 186 56h39v-101h-33q-78 0 -109 -40q-32 -41 -32 -113q0 -35 4 -63q1 -10 3.5 -30.5t4.5 -31.5q13 -73 13 -138q1 -85 -33 -132q-34 -45 -96 -62v-2 q61 -16 96 -64q35 -47 33 -133q0 -64 -13 -137q-1 -9 -3.5 -30.5t-4.5 -32.5q-4 -27 -4 -64q0 -78 33 -117t108 -39h33v-100h-39q-111 0 -184 55q-74 56 -74 191q0 42 4 75q1 11 3.5 35.5t4.5 36.5q9 54 11 73q4 32 4 73q0 17 -5 44q-4 21 -21 43q-13 17 -43 32 q-28 14 -75 14z" />
<glyph unicode="|" horiz-adv-x="897" d="M397 -158v1442h97v-1442h-97z" />
<glyph unicode="}" horiz-adv-x="798" d="M209 4v100h31q76 1 111 41q34 38 34 113q0 39 -4 66q-2 11 -4.5 33.5l-3.5 31.5q-12 63 -12 67q-5 38 -5 70q0 85 35 132t94 63v4q-60 16 -94 61q-35 46 -35 132q0 32 5 69q2 13 6.5 38.5t5.5 29.5q1 10 3.5 31.5t4.5 32.5q4 28 4 65q0 70 -33 111q-33 40 -110 40h-33 v101h37q114 0 188 -56t74 -180q0 -32 -5 -74q-2 -16 -11 -75q-1 -13 -4.5 -37.5t-5.5 -37.5q-5 -42 -5 -77q0 -19 5 -46q4 -22 21 -42q16 -19 44 -31q29 -12 78 -12v-92q-51 0 -78 -13q-29 -14 -44 -33q-17 -22 -21 -43q-5 -27 -5 -44q0 -30 5 -72q2 -13 5.5 -37.5 t4.5 -36.5q8 -44 11 -72q5 -42 5 -75q0 -68 -21 -115q-22 -49 -55 -76q-34 -28 -82 -42q-45 -13 -102 -13h-39z" />
<glyph unicode="~" horiz-adv-x="894" d="M119 432q-5 92 39 138q43 46 106 46q21 0 39 -3q19 -3 38 -9q23 -7 43 -17q12 -6 56 -26q41 -21 82 -39q32 -14 70 -14q37 0 52 27q17 30 18 77h75q2 -57 -9 -89q-12 -38 -32 -57q-22 -22 -47 -32q-26 -10 -57 -10q-36 0 -75 13q-37 12 -101 42q-73 36 -82 40 q-34 18 -70 18q-70 0 -71 -105h-74z" />
<glyph unicode="&#xad;" d="M170 532v74h512v-74h-512z" />
<glyph unicode="&#x2000;" horiz-adv-x="767" />
<glyph unicode="&#x2001;" horiz-adv-x="1534" />
<glyph unicode="&#x2002;" horiz-adv-x="767" />
<glyph unicode="&#x2003;" horiz-adv-x="1534" />
<glyph unicode="&#x2004;" horiz-adv-x="511" />
<glyph unicode="&#x2005;" horiz-adv-x="383" />
<glyph unicode="&#x2006;" horiz-adv-x="255" />
<glyph unicode="&#x2007;" horiz-adv-x="255" />
<glyph unicode="&#x2008;" horiz-adv-x="191" />
<glyph unicode="&#x2009;" horiz-adv-x="306" />
<glyph unicode="&#x200a;" horiz-adv-x="85" />
<glyph unicode="&#x2010;" d="M170 532v74h512v-74h-512z" />
<glyph unicode="&#x2011;" d="M170 532v74h512v-74h-512z" />
<glyph unicode="&#x2012;" d="M170 532v74h512v-74h-512z" />
<glyph unicode="&#x2013;" horiz-adv-x="1705" />
<glyph unicode="&#x2014;" horiz-adv-x="1705" />
<glyph unicode="&#x2018;" horiz-adv-x="616" d="M184 1349q7 36 39 60q22 21 50 24t53 -8q-32 0 -60 -22q-10 -9 -22 -24q-11 -14 -15 -27h13q24 0 41 -17q16 -16 16 -39q0 -19 -13 -33q-14 -15 -32 -20h-12q-20 0 -41 21q-2 2 -8 12q-17 35 -9 73z" />
<glyph unicode="&#x2019;" horiz-adv-x="645" d="M244 1251q34 0 63 23q27 24 33 51h-14q-21 0 -36 15q-16 16 -16 38q0 19 13 35q12 16 28 17q8 2 11 2q30 0 41 -19q8 -6 8 -16q17 -35 9 -70q-7 -34 -36 -61q-48 -36 -104 -15z" />
<glyph unicode="&#x201a;" horiz-adv-x="1705" d="M614 -76q24 6 35 9q16 4 33 20q27 21 37 53h-14q-22 0 -40 18t-18 39q0 23 13 37t32 19q4 4 13 4q12 0 24 -6q13 -7 19 -17q10 -6 10 -16q16 -33 8 -74q-7 -37 -39 -67q-52 -35 -113 -19z" />
<glyph unicode="&#x201c;" horiz-adv-x="718" d="M152 1351q7 33 36 56q46 37 97 16q-29 0 -58 -20q-26 -21 -32 -51q3 0 7 2t5 2q21 0 37 -16q14 -14 14 -37q0 -16 -12 -31q-11 -14 -29 -19h-10q-20 0 -39 19q-2 2 -8 12q-16 31 -8 67zM307 1351q7 32 37 56q46 37 96 16q-28 0 -57 -20q-9 -9 -19 -24q-11 -16 -14 -27 q3 0 7 2t5 2q21 0 37 -16q15 -15 15 -37q0 -15 -13 -31q-12 -15 -28 -19h-11q-19 0 -38 19q-4 4 -9 12q-16 31 -8 67z" />
<glyph unicode="&#x201d;" horiz-adv-x="686" d="M104 1247q12 1 36 7q17 4 34 20q24 23 35 53h-14q-22 0 -40 18t-18 39q0 22 14 38t31 20q8 2 13 2q29 0 45 -21q8 -13 8 -18q18 -34 10 -74q-7 -37 -41 -65q-52 -40 -113 -19zM283 1247q10 1 35 7q17 4 34 20q29 23 35 53h-14q-22 0 -40 18t-18 39q0 23 15 38 q16 16 30 20q8 2 13 2q30 0 45 -21q8 -8 8 -18q18 -34 10 -74q-7 -36 -39 -65q-52 -40 -114 -19z" />
<glyph unicode="&#x201e;" horiz-adv-x="1705" />
<glyph unicode="&#x2026;" horiz-adv-x="1536" d="M147 100q0 39 29 68q27 27 66 27q40 0 67 -27t27 -68q0 -40 -27 -67q-29 -29 -67 -29q-37 0 -66 29t-29 67zM659 100q0 39 29 68q27 27 66 27q40 0 67 -27t27 -68q0 -40 -27 -67q-29 -29 -67 -29q-37 0 -66 29t-29 67zM1171 100q0 39 29 68q27 27 66 27q40 0 67 -27 t27 -68q0 -40 -27 -67q-29 -29 -67 -29q-37 0 -66 29t-29 67z" />
<glyph unicode="&#x202f;" horiz-adv-x="306" />
<glyph unicode="&#x205f;" horiz-adv-x="383" />
<glyph unicode="&#x25fc;" horiz-adv-x="901" d="M0 0v901h901v-901h-901z" />
</font>
</defs>
</svg>
