<?xml version="1.0" standalone="no"?>
<!DOCTYPE svg PUBLIC "-//W3C//DTD SVG 1.1//EN" "http://www.w3.org/Graphics/SVG/1.1/DTD/svg11.dtd" >
<svg xmlns="http://www.w3.org/2000/svg">
<metadata></metadata>
<defs>
<font id="electrorocketbold" horiz-adv-x="750" >
<font-face units-per-em="2048" ascent="1638" descent="-410" />
<missing-glyph horiz-adv-x="500" />
<glyph unicode="&#xd;" horiz-adv-x="508" />
<glyph horiz-adv-x="0" />
<glyph horiz-adv-x="0" />
<glyph unicode=" " />
<glyph unicode="!" horiz-adv-x="400" d="M-42 1230l127 190h190v-1140h-200v950h-117zM75 -20v190h200v-190h-200z" />
<glyph unicode="&#x22;" horiz-adv-x="650" d="M-32 1080l113 340h201l-113 -340h-201zM218 1080l113 340h201l-113 -340h-201z" />
<glyph unicode="#" horiz-adv-x="1000" d="M-42 670h217v210h-90l-127 190h217v250h200v-250h100v250h200v-250h200v-190h-200v-210h200v-190h-200v-250h-200v250h-100v-250h-200v250h-90zM375 670h100v210h-100v-210z" />
<glyph unicode="$" d="M-42 130l127 190h115v324q-67 17 -130 80q-95 95 -95 226t95 226q63 63 130 80v164h200v-150h115l127 -190h-242v-274q67 -17 130 -80q95 -95 95 -226v-50q0 -131 -95 -226q-63 -63 -130 -80v-164h-200v150h-242zM175 950q0 -45 25 -78v156q-25 -33 -25 -78zM400 372 q25 33 25 78v50q0 45 -25 78v-206z" />
<glyph unicode="%" horiz-adv-x="1050" d="M-25 1100q0 131 94.5 225.5t230.5 94.5t230 -94q17 -17 20 -17q0 1 -3 6l34 105h201l-258 -804q9 4 76 4q136 0 230.5 -94.5t94.5 -225.5t-94.5 -225.5t-230.5 -94.5t-230 94q-17 17 -20 17q0 -1 3 -6l-34 -105h-201l258 804q-9 -4 -76 -4q-136 0 -230.5 94.5 t-94.5 225.5zM175 1100q0 -55 37.5 -92.5t87.5 -37.5t87.5 37.5t37.5 92.5t-37.5 92.5t-87.5 37.5t-87.5 -37.5t-37.5 -92.5zM475 300q0 -55 37.5 -92.5t87.5 -37.5t87.5 37.5t37.5 92.5t-37.5 92.5t-87.5 37.5t-87.5 -37.5t-37.5 -92.5z" />
<glyph unicode="&#x26;" horiz-adv-x="850" d="M-25 525q0 224 136 383q38 43 60 60q13 -9 14 -9q-110 78 -110 191t110.5 191.5t289.5 78.5v-190q-101 0 -150.5 -25t-49.5 -55t49.5 -55t125.5 -25h165l127 -190h-117v-900h-175q-199 0 -337 161t-138 384zM175 525q0 -149 82.5 -252t167.5 -103v710q-85 0 -167.5 -103 t-82.5 -252z" />
<glyph unicode="'" horiz-adv-x="400" d="M-32 1080l113 340h201l-113 -340h-201z" />
<glyph unicode="(" horiz-adv-x="850" d="M-25 700q0 358 211 614t539 256v-190q-239 0 -394.5 -198t-155.5 -482t155.5 -482t394.5 -198v-190q-328 0 -539 256t-211 614z" />
<glyph unicode=")" horiz-adv-x="850" d="M-25 20q239 0 394.5 198t155.5 482t-155.5 482t-394.5 198v190q328 0 539 -256t211 -614t-211 -614t-539 -256v190z" />
<glyph unicode="*" horiz-adv-x="1050" d="M-30 1295l59 182l320 -104v347h202v-347l320 104l59 -182l-323 -105l187 -256l-159 -115l-185 254l-185 -254l-159 115l187 256z" />
<glyph unicode="+" horiz-adv-x="850" d="M-42 1070h292v250h200v-250h275v-190h-275v-250h-200v250h-165z" />
<glyph unicode="," horiz-adv-x="300" d="M-132 -170l113 340h201l-113 -340h-201z" />
<glyph unicode="-" horiz-adv-x="850" d="M-42 1070h767v-190h-640z" />
<glyph unicode="." horiz-adv-x="300" d="M-25 -20v190h200v-190h-200z" />
<glyph unicode="/" d="M-32 -20l463 1440h201l-463 -1440h-201z" />
<glyph unicode="0" d="M-25 300v800q0 131 94.5 225.5t230.5 94.5t230.5 -94.5t94.5 -225.5v-800q0 -131 -94.5 -225.5t-230.5 -94.5t-230.5 94.5t-94.5 225.5zM175 300q0 -55 37.5 -92.5t87.5 -37.5t87.5 37.5t37.5 92.5v800q0 55 -37.5 92.5t-87.5 37.5t-87.5 -37.5t-37.5 -92.5v-800z" />
<glyph unicode="1" horiz-adv-x="300" d="M-25 -20v1277l200 200v-1477h-200z" />
<glyph unicode="2" horiz-adv-x="700" d="M-25 -20v175l253 355q147 215 147 365q0 148 -103.5 251.5t-246.5 103.5q-12 0 -50 -3v190q36 3 50 3q230 0 390 -160.5t160 -384.5t-203 -485l-154 -220h357v-190h-600z" />
<glyph unicode="3" horiz-adv-x="800" d="M-42 1420h735l-286 -408q45 -29 117 -103q151 -159 151 -384q0 -224 -153 -384.5t-372 -160.5h-75v190h75q133 0 229 103t96 252t-96 252t-229 103h-93l245 350h-217z" />
<glyph unicode="4" d="M-28 330l156 1090h200l-125 -900h222v900h200v-1440h-200v350h-453z" />
<glyph unicode="5" horiz-adv-x="700" d="M-25 -17v190q38 -3 50 -3q143 0 246.5 103.5t103.5 251.5t-103.5 251.5t-246.5 103.5q-12 0 -50 -3v24l104 519h496v-190h-309l-38 -195q94 -33 188 -126q159 -159 159 -384q0 -224 -160 -384.5t-390 -160.5q-14 0 -50 3z" />
<glyph unicode="6" d="M-25 300v450q0 33 6 62q24 224 144 393q154 215 400 215v-190q-155 0 -250 -150l-6 -9q7 -1 31 -1q136 0 230.5 -94.5t94.5 -225.5v-450q0 -131 -94.5 -225.5t-230.5 -94.5t-230.5 94.5t-94.5 225.5zM175 300q0 -55 37.5 -92.5t87.5 -37.5t87.5 37.5t37.5 92.5v450 q0 55 -37.5 92.5t-87.5 37.5t-87.5 -37.5t-37.5 -92.5v-450zM266 1072l2 -1q0 1 1 2z" />
<glyph unicode="7" d="M-42 1420h674l-463 -1440h-201l402 1250h-285z" />
<glyph unicode="8" d="M-25 300v350q0 130 94 224q3 -3 4 -3l-3 3l-1 1l1 1l3 3q-1 0 -4 -3q-94 94 -94 224q0 131 94.5 225.5t230.5 94.5t230.5 -94.5t94.5 -225.5q0 -130 -94 -224l-3 3h-1l3 -3l1 -1q94 -95 94 -225v-350q0 -131 -94.5 -225.5t-230.5 -94.5t-230.5 94.5t-94.5 225.5zM175 300 q0 -55 37.5 -92.5t87.5 -37.5t87.5 37.5t37.5 92.5v350q0 55 -37.5 92.5t-87.5 37.5t-87.5 -37.5t-37.5 -92.5v-350zM175 1100q0 -55 37.5 -92.5t87.5 -37.5t87.5 37.5t37.5 92.5t-37.5 92.5t-87.5 37.5t-87.5 -37.5t-37.5 -92.5z" />
<glyph unicode="9" d="M-25 650v450q0 131 94.5 225.5t230.5 94.5t230.5 -94.5t94.5 -225.5v-450q0 -33 -6 -62q-24 -224 -143 -393q-155 -215 -401 -215v190q155 0 250 150l6 9q-7 1 -31 1q-136 0 -230.5 94.5t-94.5 225.5zM175 650q0 -55 37.5 -92.5t87.5 -37.5t87.5 37.5t37.5 92.5v450 q0 55 -37.5 92.5t-87.5 37.5t-87.5 -37.5t-37.5 -92.5v-450zM331 327l3 1l-2 1q0 -1 -1 -2z" />
<glyph unicode=":" horiz-adv-x="300" d="M-25 -20v190h200v-190h-200zM-25 880v190h200v-190h-200z" />
<glyph unicode=";" horiz-adv-x="300" d="M-132 -170l113 340h201l-113 -340h-201zM-25 880v190h200v-190h-200z" />
<glyph unicode="&#x3c;" horiz-adv-x="675" d="M-27 700l386 720h204l-386 -720l386 -720h-204z" />
<glyph unicode="=" horiz-adv-x="850" d="M-42 670h767v-190h-640zM-42 1070h767v-190h-640z" />
<glyph unicode="&#x3e;" horiz-adv-x="675" d="M-38 -20l386 720l-386 720h204l386 -720l-386 -720h-204z" />
<glyph unicode="?" horiz-adv-x="800" d="M-42 1420h192q219 0 372 -160t153 -385q0 -224 -151 -383q-136 -142 -305 -158l-2 -4h-42v-50h-200v240h175q133 0 229 103t96 252t-96 252t-229 103h-65zM-25 -20v190h200v-190h-200z" />
<glyph unicode="@" horiz-adv-x="1250" d="M-25 700q0 235 167.5 402.5t407.5 167.5t407.5 -167.5t167.5 -402.5q0 -111 -79.5 -190.5t-195.5 -79.5q-115 0 -175 59q-60 -59 -175 -59q-116 0 -195.5 79.5t-79.5 190.5t79.5 190.5t195.5 79.5q60 0 75 -6v6h200v-270q0 -34 23 -57t52 -23t52 23t23 57 q0 159 -110.5 269.5t-264.5 110.5t-264.5 -110.5t-110.5 -269.5t110.5 -269.5t264.5 -110.5h592l-127 -190h-465q-240 0 -407.5 167.5t-167.5 402.5zM425 700q0 -34 23 -57t52 -23t52 23t23 57t-23 57t-52 23t-52 -23t-23 -57z" />
<glyph unicode="A" horiz-adv-x="850" d="M-42 520h117v580q0 131 94.5 225.5t230.5 94.5t230.5 -94.5t94.5 -225.5v-580h117l-100 -150h459l-476 -129v-261h-200v206l-77 -22l110 166h-283v-350h-200v365zM275 520h250v580q0 55 -37.5 92.5t-87.5 37.5t-87.5 -37.5t-37.5 -92.5v-580z" />
<glyph unicode="B" horiz-adv-x="900" d="M-42 1070h117v350h225q134 0 229.5 -79t95.5 -191t-76 -175q30 -20 75 -67q151 -159 151 -383q0 -225 -153 -385t-372 -160h-175v915zM275 170q108 0 204 103t96 252t-96 252t-204 103v-710zM275 1070h25q53 0 89 24t36 56t-36 56t-89 24h-25v-160z" />
<glyph unicode="C" horiz-adv-x="850" d="M-25 700q0 297 211.5 508.5t538.5 211.5v-190q-241 0 -395.5 -154.5t-154.5 -375.5t154.5 -375.5t395.5 -154.5v-190q-327 0 -538.5 211.5t-211.5 508.5z" />
<glyph unicode="D" horiz-adv-x="850" d="M-25 -20v1440q327 0 538.5 -211.5t211.5 -508.5t-211.5 -508.5t-538.5 -211.5zM175 197q94 26 196 128q154 154 154 375t-154 375q-102 102 -196 128v-1006z" />
<glyph unicode="E" horiz-adv-x="850" d="M-42 1070h117v175l-117 175h657l127 -190h-467v-160h367l-100 -150h459l-726 -198v-552h450v-190h-650v915zM275 756l83 124h-83v-124z" />
<glyph unicode="F" horiz-adv-x="850" d="M-42 1070h117v175l-117 175h657l127 -190h-467v-160h367l-100 -150h459l-726 -198v-742h-200v915zM275 756l83 124h-83v-124z" />
<glyph unicode="G" horiz-adv-x="850" d="M-25 700q0 297 211.5 508.5t538.5 211.5v-190q-241 0 -395.5 -154.5t-154.5 -375.5t154 -375q102 -102 196 -128v539l-77 -22l81 122l29 44h-200l127 190h357l-100 -150h459l-476 -129v-811q-327 0 -538.5 211.5t-211.5 508.5z" />
<glyph unicode="H" horiz-adv-x="850" d="M-42 1070h117v350h200v-350h250v350h200v-350h117l-100 -150h459l-476 -129v-811h-200v756l-77 -22l110 166h-283v-900h-200v915z" />
<glyph unicode="I" horiz-adv-x="300" d="M-25 -20v1440h200v-1440h-200z" />
<glyph unicode="J" horiz-adv-x="450" d="M-25 -20v190q75 0 112.5 37.5t37.5 92.5v1120h200v-1120q0 -131 -94.5 -225.5t-255.5 -94.5z" />
<glyph unicode="K" horiz-adv-x="850" d="M-42 1070h117v350h200v-301l236 301h234l-275 -350h255v-1090h-200v900h-250v-900h-200v915z" />
<glyph unicode="L" d="M-25 -20v1440h200v-1250h567l-100 -150h459l-753 -205l110 165h-483z" />
<glyph unicode="M" horiz-adv-x="950" d="M-25 -20v1489l425 -541l425 541v-1489h-200v951l-225 -286l-225 286v-951h-200z" />
<glyph unicode="N" d="M-25 -20v1440h188l262 -291v291h200v-1440h-200v914l-250 277v-1191h-200z" />
<glyph unicode="O" horiz-adv-x="1550" d="M-25 700q0 297 211.5 508.5t513.5 211.5t513.5 -211.5t211.5 -508.5t-211.5 -508.5t-513.5 -211.5t-513.5 211.5t-211.5 508.5zM175 700q0 -221 154.5 -375.5t370.5 -154.5t370.5 154.5t154.5 375.5t-154.5 375.5t-370.5 154.5t-370.5 -154.5t-154.5 -375.5z" />
<glyph unicode="P" horiz-adv-x="900" d="M-42 520h117v725l-117 175h292q219 0 372 -160t153 -385q0 -224 -151 -383q-136 -142 -305 -158l-2 -4h-42v-350h-200v365zM275 520q108 0 204 103t96 252t-96 252t-204 103v-710z" />
<glyph unicode="Q" horiz-adv-x="1550" d="M-25 700q0 297 211.5 508.5t513.5 211.5t513.5 -211.5t211.5 -508.5t-198 -495l91 -91l100 -100l109 -109h-100l395 -395l-803 435h204l-41 41l-100 100q-156 -106 -382 -106q-302 0 -513.5 211.5t-211.5 508.5zM175 700q0 -221 154.5 -375.5t370.5 -154.5q146 0 241 57 l-293 293h264l177 -177q136 136 136 357t-154.5 375.5t-370.5 154.5t-370.5 -154.5t-154.5 -375.5z" />
<glyph unicode="R" horiz-adv-x="900" d="M-42 520h117v725l-117 175h292q219 0 372 -160t153 -385q0 -224 -151 -383q-103 -107 -200 -134l244 -244l100 -100l109 -109h-100l395 -395l-803 435h204l-41 41l-100 100l-157 157v-263h-200v365zM275 520q108 0 204 103t96 252t-96 252t-204 103v-710z" />
<glyph unicode="S" d="M-25 1075q0 141 94.5 243t230.5 102h115l127 -190h-242q-49 0 -87 -44t-38 -111q0 -66 38 -110.5t87 -44.5q139 0 232 -139.5t93 -330.5t-93 -330.5t-232 -139.5h-225v190h225q45 0 85 80t40 200t-40 200t-85 80q-136 0 -230.5 102t-94.5 243z" />
<glyph unicode="T" horiz-adv-x="850" d="M-42 1420h884l-100 -150h459l-726 -198v-1092h-200v1250h-190zM475 1106l83 124h-83v-124z" />
<glyph unicode="U" d="M-25 300v1120h200v-1120q0 -55 37.5 -92.5t87.5 -37.5t87.5 37.5t37.5 92.5v1120h200v-1120q0 -131 -94.5 -225.5t-230.5 -94.5t-230.5 94.5t-94.5 225.5z" />
<glyph unicode="V" d="M-30 1420h201l129 -602l129 602h201l-330 -1538z" />
<glyph unicode="W" horiz-adv-x="1050" d="M-30 1420h201l129 -602l150 700l150 -700l129 602h201l-330 -1538l-150 700l-150 -700z" />
<glyph unicode="X" d="M-32 -20l231 720l-231 720h201l131 -407l131 407h201l-231 -720l231 -720h-201l-131 407l-131 -407h-201z" />
<glyph unicode="Y" d="M-32 1420h201l131 -393l131 393h201l-232 -697v-743h-200v743z" />
<glyph unicode="Z" d="M-42 1420h674l-402 -1250h512l-100 -150h459l-753 -205l110 165h-490l402 1250h-285z" />
<glyph unicode="[" horiz-adv-x="650" d="M-42 1570h457l127 -190h-267v-1360h250v-190h-450v1565z" />
<glyph unicode="\" d="M-32 1420h201l463 -1440h-201z" />
<glyph unicode="]" horiz-adv-x="550" d="M-42 1570h467v-1740h-450v190h250v1360h-140z" />
<glyph unicode="^" d="M-42 1530l342 512l342 -512h-207l-135 203l-135 -203h-207z" />
<glyph unicode="_" horiz-adv-x="950" d="M-25 -130h850v-190h-850v190z" />
<glyph unicode="`" d="M-50 2020h237l463 -490h-237z" />
<glyph unicode="a" d="M-25 300v100q0 131 94.5 225.5t230.5 94.5q91 0 125 -20v50q0 55 -37.5 92.5t-87.5 37.5t-87.5 -37.5t-37.5 -112.5h-200q0 151 94.5 245.5t230.5 94.5t230.5 -94.5t94.5 -225.5v-770h-200v20q-34 -20 -125 -20q-136 0 -230.5 94.5t-94.5 225.5zM175 300 q0 -55 37.5 -92.5t87.5 -37.5t87.5 37.5t37.5 92.5v100q0 55 -37.5 92.5t-87.5 37.5t-87.5 -37.5t-37.5 -92.5v-100z" />
<glyph unicode="b" horiz-adv-x="825" d="M-25 -20v1440h200v-350q204 0 364.5 -160.5t160.5 -384.5q0 -225 -160.5 -385t-389.5 -160h-175zM175 170q118 0 221.5 103.5t103.5 251.5t-103.5 251.5t-221.5 103.5v-710z" />
<glyph unicode="c" horiz-adv-x="675" d="M-25 525q0 224 160 384.5t415 160.5v-190q-168 0 -271.5 -103.5t-103.5 -251.5t103.5 -251.5t271.5 -103.5v-190q-255 0 -415 160t-160 385z" />
<glyph unicode="d" horiz-adv-x="825" d="M-25 525q0 224 160.5 384.5t364.5 160.5v350h200v-1440h-175q-229 0 -389.5 160t-160.5 385zM175 525q0 -148 103.5 -251.5t221.5 -103.5v710q-118 0 -221.5 -103.5t-103.5 -251.5z" />
<glyph unicode="e" d="M-25 300v450q0 132 94 226t231 94q136 0 230.5 -94.5t94.5 -225.5v-345h-450v-105q0 -55 37.5 -92.5t87.5 -37.5h342l-127 -190h-215q-136 0 -230.5 94.5t-94.5 225.5zM175 595h250v155q0 55 -37.5 92.5t-87.5 37.5t-87.5 -37.5t-37.5 -92.5v-155z" />
<glyph unicode="f" horiz-adv-x="800" d="M-42 1070h167v55q0 132 94 226t231 94q136 0 244 -108l-138 -138q-56 56 -106 56t-88 -38q-37 -37 -37 -91v-56h140l127 -190h-267v-875h-200v875h-40z" />
<glyph unicode="g" d="M-25 -30h200q0 -75 37.5 -112.5t87.5 -37.5t87.5 37.5t37.5 92.5v50q-34 -20 -125 -20q-136 0 -230.5 94.5t-94.5 225.5v450q0 131 94.5 225.5t230.5 94.5q91 0 125 -20v20h200v-1120q0 -131 -94.5 -225.5t-230.5 -94.5t-230.5 94.5t-94.5 245.5zM175 300 q0 -55 37.5 -92.5t87.5 -37.5t87.5 37.5t37.5 92.5v450q0 55 -37.5 92.5t-87.5 37.5t-87.5 -37.5t-37.5 -92.5v-450z" />
<glyph unicode="h" d="M-25 -20v1440h200v-370q34 20 125 20q136 0 230.5 -94.5t94.5 -225.5v-770h-200v770q0 55 -37.5 92.5t-87.5 37.5t-88 -38q-37 -37 -37 -91v-771h-200z" />
<glyph unicode="i" horiz-adv-x="300" d="M-25 -20v1090h200v-1090h-200zM-25 1180v190h200v-190h-200z" />
<glyph unicode="j" horiz-adv-x="300" d="M-175 -180q75 0 112.5 37.5t37.5 92.5v1120h200v-1120q0 -131 -94.5 -225.5t-255.5 -94.5v190zM-25 1180v190h200v-190h-200z" />
<glyph unicode="k" d="M-25 -20v1440h200v-651l236 301h234l-275 -350h255v-740h-200v550h-250v-550h-200z" />
<glyph unicode="l" horiz-adv-x="300" d="M-25 -20v1440h200v-1440h-200z" />
<glyph unicode="m" horiz-adv-x="1200" d="M-25 -20v1090h200v-20q34 20 125 20q132 0 224 -88l1 -1q93 89 225 89q136 0 230.5 -94.5t94.5 -225.5v-770h-200v770q0 55 -37.5 92.5t-87.5 37.5t-87.5 -37.5t-37.5 -92.5v-770h-200v770q0 55 -37.5 92.5t-87.5 37.5t-88 -38q-37 -37 -37 -91v-771h-200z" />
<glyph unicode="n" d="M-25 -20v1090h200v-20q34 20 125 20q136 0 230.5 -94.5t94.5 -225.5v-770h-200v770q0 55 -37.5 92.5t-87.5 37.5t-88 -38q-37 -37 -37 -91v-771h-200z" />
<glyph unicode="o" horiz-adv-x="1200" d="M-25 525q0 224 160 384.5t390 160.5q229 0 389.5 -160.5t160.5 -384.5q0 -225 -160.5 -385t-389.5 -160q-230 0 -390 160t-160 385zM175 525q0 -148 103.5 -251.5t246.5 -103.5t246.5 103.5t103.5 251.5t-103.5 251.5t-246.5 103.5t-246.5 -103.5t-103.5 -251.5z" />
<glyph unicode="p" horiz-adv-x="825" d="M-25 -370v1440h175q229 0 389.5 -160t160.5 -385q0 -224 -160.5 -384.5t-364.5 -160.5v-350h-200zM175 170q118 0 221.5 103.5t103.5 251.5t-103.5 251.5t-221.5 103.5v-710z" />
<glyph unicode="q" horiz-adv-x="825" d="M-25 525q0 225 160.5 385t389.5 160h175v-1440h-200v350q-204 0 -364.5 160.5t-160.5 384.5zM175 525q0 -148 103.5 -251.5t221.5 -103.5v710q-118 0 -221.5 -103.5t-103.5 -251.5z" />
<glyph unicode="r" horiz-adv-x="650" d="M-25 -20v1090h200v-20q34 20 125 20q136 0 244 -108l-138 -138q-56 56 -106 56t-88 -38q-37 -37 -37 -91v-771h-200z" />
<glyph unicode="s" d="M-42 170h342q50 0 87.5 37.5t37.5 92.5t-37.5 92.5t-87.5 37.5q-136 0 -230.5 94.5t-94.5 225.5t94.5 225.5t230.5 94.5h215l127 -190h-342q-50 0 -87.5 -37.5t-37.5 -92.5t37.5 -92.5t87.5 -37.5q136 0 230.5 -94.5t94.5 -225.5t-94.5 -225.5t-230.5 -94.5h-215z" />
<glyph unicode="t" horiz-adv-x="800" d="M-42 1070h167v375h200v-375h140l127 -190h-267v-556q0 -54 37 -91q38 -38 88 -38t106 56l138 -138q-108 -108 -244 -108q-137 0 -231 94t-94 226v555h-40z" />
<glyph unicode="u" d="M-25 300v770h200v-770q0 -55 37.5 -92.5t87.5 -37.5t87.5 37.5t37.5 92.5v770h200v-770q0 -131 -94.5 -225.5t-230.5 -94.5t-230.5 94.5t-94.5 225.5z" />
<glyph unicode="v" d="M-31 1070h201l130 -455l130 455h201l-331 -1160z" />
<glyph unicode="w" horiz-adv-x="1050" d="M-31 1070h201l130 -455l150 525l150 -525l130 455h201l-331 -1160l-150 525l-150 -525z" />
<glyph unicode="x" d="M-35 -20l234 545l-234 545h203l132 -309l132 309h203l-234 -545l234 -545h-203l-132 309l-132 -309h-203z" />
<glyph unicode="y" d="M-25 -30h200q0 -75 37.5 -112.5t87.5 -37.5t87.5 37.5t37.5 92.5v50q-34 -20 -125 -20q-136 0 -230.5 94.5t-94.5 225.5v770h200v-770q0 -55 37.5 -92.5t87.5 -37.5t88 38q37 37 37 91v771h200v-1120q0 -131 -94.5 -225.5t-230.5 -94.5t-230.5 94.5t-94.5 245.5z" />
<glyph unicode="z" d="M-42 1070h677l-375 -900h365v-190h-660l375 900h-255z" />
<glyph unicode="{" horiz-adv-x="900" d="M65 901q91 20 163 96q97 104 97 253q0 131 94.5 225.5t245.5 94.5l127 -190h-142q-50 0 -87.5 -37.5t-37.5 -92.5q0 -224 -143 -375q143 -150 143 -375v-350q0 -55 37.5 -92.5t102.5 -37.5l127 -190h-142q-136 0 -230.5 94.5t-94.5 225.5v350q0 149 -97 253 q-72 76 -162 95z" />
<glyph unicode="|" horiz-adv-x="300" d="M-25 -170v1740h200v-1740h-200z" />
<glyph unicode="}" horiz-adv-x="900" d="M-42 -170l127 190q65 0 102.5 37.5t37.5 92.5v350q0 225 143 375q-143 151 -143 375q0 55 -37.5 92.5t-87.5 37.5h-142l127 190q151 0 245.5 -94.5t94.5 -225.5q0 -149 97 -253q72 -76 163 -96l-1 -53q-90 -19 -162 -95q-97 -104 -97 -253v-350q0 -131 -94.5 -225.5 t-230.5 -94.5h-142z" />
<glyph unicode="~" d="M-25 1507v143q0 107 69 176t156 69t137 -50t63 -50q25 0 25 64l200 134v-143q0 -100 -69 -172.5t-156 -72.5t-137 50t-63 50q-25 0 -25 -64z" />
<glyph unicode="&#xa0;" />
<glyph unicode="&#xa1;" horiz-adv-x="400" d="M-25 -20v1140h200v-950h117l-127 -190h-190zM-25 1230v190h200v-190h-200z" />
<glyph unicode="&#xa2;" d="M-25 450v500q0 131 95 226q74 74 155 87v157h200v-150h267l-127 -190h-140v-760h267l-127 -190h-140v-150h-200v157q-81 13 -155 87q-95 95 -95 226zM175 450q0 -55 37 -92q9 -9 13 -14v712q-4 -5 -13 -14q-37 -37 -37 -92v-500z" />
<glyph unicode="&#xa3;" horiz-adv-x="850" d="M-42 170h117v175l-117 175h117v580q0 131 94.5 225.5t230.5 94.5t230.5 -94.5t94.5 -245.5h-200q0 75 -37.5 112.5t-87.5 37.5t-87.5 -37.5t-37.5 -92.5v-580h150v-190h-150v-160h340l127 -190h-657z" />
<glyph unicode="&#xa4;" d="M-35 -20l120 280q-3 3 -15 14q-95 95 -95 226t95 226q20 20 31 27l-136 317h203l107 -250h50l107 250h203l-136 -317q11 -7 31 -27q95 -95 95 -226t-95 -226q-12 -11 -15 -14l120 -280h-203l-86 202q-11 -2 -46 -2t-46 2l-86 -202h-203zM175 500q0 -55 37.5 -92.5 t87.5 -37.5t87.5 37.5t37.5 92.5t-37.5 92.5t-87.5 37.5t-87.5 -37.5t-37.5 -92.5z" />
<glyph unicode="&#xa5;" horiz-adv-x="850" d="M-42 520h292v110h-165l-127 190h260l-200 600h201l131 -393l131 393h201l-200 -600h243v-190h-275v-110h275v-190h-275v-350h-200v350h-165z" />
<glyph unicode="&#xa6;" horiz-adv-x="300" d="M-25 -170v1090h200v-1090h-200zM-25 1030v540h200v-540h-200z" />
<glyph unicode="&#xa7;" d="M-25 800q0 79 31 138q-31 81 -31 212q0 216 94.5 318t230.5 102h115l127 -190h-242q-49 0 -87 -44t-38 -186v-51q37 21 125 21q136 0 230.5 -94.5t94.5 -225.5q0 -84 -36 -147q36 -116 36 -303q0 -241 -93 -380.5t-232 -139.5h-225v190h225q45 0 85 80t40 250 q0 107 -6 149q-35 -19 -119 -19q-136 0 -230.5 94.5t-94.5 225.5zM175 800q0 -55 37.5 -92.5t87.5 -37.5t87.5 37.5t37.5 92.5t-37.5 92.5t-87.5 37.5t-87.5 -37.5t-37.5 -92.5z" />
<glyph unicode="&#xa8;" d="M-25 1530v190h200v-190h-200zM425 1530v190h200v-190h-200z" />
<glyph unicode="&#xa9;" horiz-adv-x="1300" d="M-25 825q0 245 175 420t425 175t425 -175t175 -420t-175 -420t-425 -175t-425 175t-175 420zM175 825q0 -169 118 -287t282 -118t282 118t118 287t-118 287t-282 118t-282 -118t-118 -287zM325 825q0 152 109 261t291 109v-115q-127 0 -201 -74t-74 -181t74 -181t201 -74 v-115q-182 0 -291 109t-109 261z" />
<glyph unicode="&#xaa;" horiz-adv-x="1650" d="M0 200v1100q0 200 200 200h1100q200 0 200 -200v-1100q0 -200 -200 -200h-1100q-200 0 -200 200zM25 200q1 -175 175 -175h1101q174 0 174 176v1099q0 175 -175 175h-1100q-174 0 -175 -175v-1100z" />
<glyph unicode="&#xab;" horiz-adv-x="944" d="M141 479l364 323h50v-62l-201 -261l201 -261v-62h-50zM454 479l364 323h50v-62l-201 -261l201 -261v-62h-50z" />
<glyph unicode="&#xac;" horiz-adv-x="1014" d="M62 647v140h890v-518l-14 -14h-135v392h-741z" />
<glyph unicode="&#xad;" horiz-adv-x="850" d="M-42 1070h767v-190h-640z" />
<glyph unicode="&#xae;" horiz-adv-x="1300" d="M-25 825q0 245 175 420t425 175t425 -175t175 -420t-175 -420q-54 -53 -95 -78l119 -119l-166 91q-119 -69 -283 -69q-250 0 -425 175t-175 420zM175 825q0 -169 118 -287t282 -118q56 0 59 1l-110 59h-124v190l-67 100h67v350l-34 51q-39 -25 -73 -59 q-118 -118 -118 -287zM483 1220h17q116 0 195.5 -83t79.5 -199t-78 -198q-54 -56 -89 -66l111 -112l50 -50l28 -26q27 19 61 53q117 117 117 286t-118 287t-282 118q-48 0 -92 -10zM525 483h110l-4 5l-49 48l-57 57v-110zM525 770q36 0 80.5 48t44.5 120q0 71 -44.5 119 t-80.5 48v-335z" />
<glyph unicode="&#xaf;" horiz-adv-x="1650" d="M0 200v1100q0 200 200 200h1100q200 0 200 -200v-1100q0 -200 -200 -200h-1100q-200 0 -200 200zM25 200q1 -175 175 -175h1101q174 0 174 176v1099q0 175 -175 175h-1100q-174 0 -175 -175v-1100z" />
<glyph unicode="&#xb0;" horiz-adv-x="674" d="M35 1164q0 123 88 210.5t216 87.5q127 0 214.5 -88t87.5 -210q0 -121 -88.5 -209.5t-215.5 -88.5q-129 0 -215.5 87.5t-86.5 210.5zM155 1163q0 -80 54.5 -133.5t129.5 -53.5t128.5 53.5t53.5 133.5t-54 134.5t-128 54.5t-129 -54.5t-55 -134.5z" />
<glyph unicode="&#xb1;" horiz-adv-x="1650" d="M0 200v1100q0 200 200 200h1100q200 0 200 -200v-1100q0 -200 -200 -200h-1100q-200 0 -200 200zM25 200q1 -175 175 -175h1101q174 0 174 176v1099q0 175 -175 175h-1100q-174 0 -175 -175v-1100z" />
<glyph unicode="&#xb2;" horiz-adv-x="1650" d="M0 200v1100q0 200 200 200h1100q200 0 200 -200v-1100q0 -200 -200 -200h-1100q-200 0 -200 200zM25 200q1 -175 175 -175h1101q174 0 174 176v1099q0 175 -175 175h-1100q-174 0 -175 -175v-1100z" />
<glyph unicode="&#xb3;" horiz-adv-x="1650" d="M0 200v1100q0 200 200 200h1100q200 0 200 -200v-1100q0 -200 -200 -200h-1100q-200 0 -200 200zM25 200q1 -175 175 -175h1101q174 0 174 176v1099q0 175 -175 175h-1100q-174 0 -175 -175v-1100z" />
<glyph unicode="&#xb4;" d="M-50 1530l463 490h237l-463 -490h-237z" />
<glyph unicode="&#xb5;" d="M-25 -370v1440h200v-771q0 -54 37 -91q38 -38 88 -38t87.5 37.5t37.5 92.5v770h200v-770q0 -131 -94.5 -225.5t-230.5 -94.5q-91 0 -125 20v-370h-200z" />
<glyph unicode="&#xb6;" horiz-adv-x="1100" d="M-25 875q0 225 153 385t372 160h475v-1440h-200v1250h-100v-1250h-200v350h-42l-2 4q-169 16 -305 158q-151 159 -151 383z" />
<glyph unicode="&#xb7;" horiz-adv-x="300" d="M-25 880v190h200v-190h-200z" />
<glyph unicode="&#xb8;" d="M-25 -225q0 107 69 176t156 69t137 -50t63 -50q25 0 25 55v195h200v-195q0 -100 -69 -172.5t-156 -72.5t-137 50t-63 50q-25 0 -25 -64l-200 -134v143z" />
<glyph unicode="&#xb9;" horiz-adv-x="1650" d="M0 200v1100q0 200 200 200h1100q200 0 200 -200v-1100q0 -200 -200 -200h-1100q-200 0 -200 200zM25 200q1 -175 175 -175h1101q174 0 174 176v1099q0 175 -175 175h-1100q-174 0 -175 -175v-1100z" />
<glyph unicode="&#xba;" horiz-adv-x="1650" d="M0 200v1100q0 200 200 200h1100q200 0 200 -200v-1100q0 -200 -200 -200h-1100q-200 0 -200 200zM25 200q1 -175 175 -175h1101q174 0 174 176v1099q0 175 -175 175h-1100q-174 0 -175 -175v-1100z" />
<glyph unicode="&#xbb;" horiz-adv-x="944" d="M76 156v62l201 261l-201 261v62h50l364 -323l-364 -323h-50zM389 156v62l201 261l-201 261v62h50l364 -323l-364 -323h-50z" />
<glyph unicode="&#xbc;" horiz-adv-x="1650" d="M0 200v1100q0 200 200 200h1100q200 0 200 -200v-1100q0 -200 -200 -200h-1100q-200 0 -200 200zM25 200q1 -175 175 -175h1101q174 0 174 176v1099q0 175 -175 175h-1100q-174 0 -175 -175v-1100z" />
<glyph unicode="&#xbd;" horiz-adv-x="1650" d="M0 200v1100q0 200 200 200h1100q200 0 200 -200v-1100q0 -200 -200 -200h-1100q-200 0 -200 200zM25 200q1 -175 175 -175h1101q174 0 174 176v1099q0 175 -175 175h-1100q-174 0 -175 -175v-1100z" />
<glyph unicode="&#xbe;" horiz-adv-x="1650" d="M0 200v1100q0 200 200 200h1100q200 0 200 -200v-1100q0 -200 -200 -200h-1100q-200 0 -200 200zM25 200q1 -175 175 -175h1101q174 0 174 176v1099q0 175 -175 175h-1100q-174 0 -175 -175v-1100z" />
<glyph unicode="&#xbf;" horiz-adv-x="800" d="M-25 525q0 224 151 383q136 142 305 158l2 4h42v50h200v-240h-175q-133 0 -229 -103t-96 -252t96 -252t229 -103h65l127 -190h-192q-219 0 -372 160t-153 385zM475 1230v190h200v-190h-200z" />
<glyph unicode="&#xc0;" horiz-adv-x="850" d="M-42 520h117v580q0 131 94.5 225.5t230.5 94.5t230.5 -94.5t94.5 -225.5v-580h117l-100 -150h459l-476 -129v-261h-200v206l-77 -22l110 166h-283v-350h-200v365zM50 2020h237l463 -490h-237zM275 520h250v580q0 55 -37.5 92.5t-87.5 37.5t-87.5 -37.5t-37.5 -92.5v-580z " />
<glyph unicode="&#xc1;" horiz-adv-x="850" d="M-42 520h117v580q0 131 94.5 225.5t230.5 94.5t230.5 -94.5t94.5 -225.5v-580h117l-100 -150h459l-476 -129v-261h-200v206l-77 -22l110 166h-283v-350h-200v365zM50 1530l463 490h237l-463 -490h-237zM275 520h250v580q0 55 -37.5 92.5t-87.5 37.5t-87.5 -37.5 t-37.5 -92.5v-580z" />
<glyph unicode="&#xc2;" horiz-adv-x="850" d="M-42 520h117v580q0 131 94.5 225.5t230.5 94.5t230.5 -94.5t94.5 -225.5v-580h117l-100 -150h459l-476 -129v-261h-200v206l-77 -22l110 166h-283v-350h-200v365zM58 1530l342 512l342 -512h-207l-135 203l-135 -203h-207zM275 520h250v580q0 55 -37.5 92.5t-87.5 37.5 t-87.5 -37.5t-37.5 -92.5v-580z" />
<glyph unicode="&#xc3;" horiz-adv-x="850" d="M-42 520h117v580q0 131 94.5 225.5t230.5 94.5t230.5 -94.5t94.5 -225.5v-580h117l-100 -150h459l-476 -129v-261h-200v206l-77 -22l110 166h-283v-350h-200v365zM75 1507v143q0 107 69 176t156 69t137 -50t63 -50q25 0 25 64l200 134v-143q0 -100 -69 -172.5t-156 -72.5 t-137 50t-63 50q-25 0 -25 -64zM275 520h250v580q0 55 -37.5 92.5t-87.5 37.5t-87.5 -37.5t-37.5 -92.5v-580z" />
<glyph unicode="&#xc4;" horiz-adv-x="850" d="M-42 520h117v580q0 131 94.5 225.5t230.5 94.5t230.5 -94.5t94.5 -225.5v-580h117l-100 -150h459l-476 -129v-261h-200v206l-77 -22l110 166h-283v-350h-200v365zM75 1530v190h200v-190h-200zM275 520h250v580q0 55 -37.5 92.5t-87.5 37.5t-87.5 -37.5t-37.5 -92.5v-580z M525 1530v190h200v-190h-200z" />
<glyph unicode="&#xc5;" horiz-adv-x="850" d="M-42 520h117v580q0 131 94.5 225.5t230.5 94.5t230.5 -94.5t94.5 -225.5v-580h117l-100 -150h459l-476 -129v-261h-200v206l-77 -22l110 166h-283v-350h-200v365zM150 1775q0 100 72.5 172.5t177.5 72.5t177.5 -72.5t72.5 -172.5t-72.5 -172.5t-177.5 -72.5t-177.5 72.5 t-72.5 172.5zM275 520h250v580q0 55 -37.5 92.5t-87.5 37.5t-87.5 -37.5t-37.5 -92.5v-580zM350 1775q0 -24 15.5 -39.5t34.5 -15.5t34.5 15.5t15.5 39.5t-15.5 39.5t-34.5 15.5t-34.5 -15.5t-15.5 -39.5z" />
<glyph unicode="&#xc6;" horiz-adv-x="1300" d="M-42 520h117v580q0 131 94.5 225.5t230.5 94.5h665l127 -190h-467v-160h367l-100 -150h459l-726 -198v-552h450v-190h-650v350h-250v-350h-200v365zM275 520h250v375l-117 175h117v30q0 55 -37.5 92.5t-87.5 37.5t-87.5 -37.5t-37.5 -92.5v-580zM725 756l83 124h-83v-124 z" />
<glyph unicode="&#xc7;" horiz-adv-x="850" d="M-25 700q0 297 211.5 508.5t538.5 211.5v-190q-241 0 -395.5 -154.5t-154.5 -375.5t154.5 -375.5t395.5 -154.5v-195q0 -100 -69 -172.5t-156 -72.5t-137 50t-63 50q-25 0 -25 -64l-200 -134v143q0 107 69 176t156 69t137 -50t63 -50q25 0 25 55v25q-184 37 -338 191 q-212 212 -212 509z" />
<glyph unicode="&#xc8;" horiz-adv-x="850" d="M-42 1070h117v175l-117 175h657l127 -190h-467v-160h367l-100 -150h459l-726 -198v-552h450v-190h-650v915zM50 2020h237l463 -490h-237zM275 756l83 124h-83v-124z" />
<glyph unicode="&#xc9;" horiz-adv-x="850" d="M-42 1070h117v175l-117 175h657l127 -190h-467v-160h367l-100 -150h459l-726 -198v-552h450v-190h-650v915zM50 1530l463 490h237l-463 -490h-237zM275 756l83 124h-83v-124z" />
<glyph unicode="&#xca;" horiz-adv-x="850" d="M-42 1070h117v175l-117 175h657l127 -190h-467v-160h367l-100 -150h459l-726 -198v-552h450v-190h-650v915zM58 1530l342 512l342 -512h-207l-135 203l-135 -203h-207zM275 756l83 124h-83v-124z" />
<glyph unicode="&#xcb;" horiz-adv-x="850" d="M-42 1070h117v175l-117 175h657l127 -190h-467v-160h367l-100 -150h459l-726 -198v-552h450v-190h-650v915zM75 1530v190h200v-190h-200zM275 756l83 124h-83v-124zM525 1530v190h200v-190h-200z" />
<glyph unicode="&#xcc;" horiz-adv-x="300" d="M-275 2020h237l463 -490h-237zM-25 -20v1440h200v-1440h-200z" />
<glyph unicode="&#xcd;" horiz-adv-x="300" d="M-275 1530l463 490h237l-463 -490h-237zM-25 -20v1440h200v-1440h-200z" />
<glyph unicode="&#xce;" horiz-adv-x="300" d="M-267 1530l342 512l342 -512h-207l-135 203l-135 -203h-207zM-25 -20v1440h200v-1440h-200z" />
<glyph unicode="&#xcf;" horiz-adv-x="300" d="M-250 1530v190h200v-190h-200zM-25 -20v1440h200v-1440h-200zM200 1530v190h200v-190h-200z" />
<glyph unicode="&#xd0;" horiz-adv-x="950" d="M-42 1070h117v350q327 0 538.5 -211.5t211.5 -508.5t-211.5 -508.5t-538.5 -211.5v915zM275 197q94 26 196 128q154 154 154 375t-154 375q-102 102 -196 128v-133h140l127 -190h-267v-683z" />
<glyph unicode="&#xd1;" d="M-25 -20v1440h188l262 -291v291h200v-1440h-200v914l-250 277v-1191h-200zM-25 1507v143q0 107 69 176t156 69t137 -50t63 -50q25 0 25 64l200 134v-143q0 -100 -69 -172.5t-156 -72.5t-137 50t-63 50q-25 0 -25 -64z" />
<glyph unicode="&#xd2;" horiz-adv-x="1550" d="M-25 700q0 297 211.5 508.5t513.5 211.5t513.5 -211.5t211.5 -508.5t-211.5 -508.5t-513.5 -211.5t-513.5 211.5t-211.5 508.5zM175 700q0 -221 154.5 -375.5t370.5 -154.5t370.5 154.5t154.5 375.5t-154.5 375.5t-370.5 154.5t-370.5 -154.5t-154.5 -375.5zM350 2020 h237l463 -490h-237z" />
<glyph unicode="&#xd3;" horiz-adv-x="1550" d="M-25 700q0 297 211.5 508.5t513.5 211.5t513.5 -211.5t211.5 -508.5t-211.5 -508.5t-513.5 -211.5t-513.5 211.5t-211.5 508.5zM175 700q0 -221 154.5 -375.5t370.5 -154.5t370.5 154.5t154.5 375.5t-154.5 375.5t-370.5 154.5t-370.5 -154.5t-154.5 -375.5zM350 1530 l463 490h237l-463 -490h-237z" />
<glyph unicode="&#xd4;" horiz-adv-x="1550" d="M-25 700q0 297 211.5 508.5t513.5 211.5t513.5 -211.5t211.5 -508.5t-211.5 -508.5t-513.5 -211.5t-513.5 211.5t-211.5 508.5zM175 700q0 -221 154.5 -375.5t370.5 -154.5t370.5 154.5t154.5 375.5t-154.5 375.5t-370.5 154.5t-370.5 -154.5t-154.5 -375.5zM358 1530 l342 512l342 -512h-207l-135 203l-135 -203h-207z" />
<glyph unicode="&#xd5;" horiz-adv-x="1550" d="M-25 700q0 297 211.5 508.5t513.5 211.5t513.5 -211.5t211.5 -508.5t-211.5 -508.5t-513.5 -211.5t-513.5 211.5t-211.5 508.5zM175 700q0 -221 154.5 -375.5t370.5 -154.5t370.5 154.5t154.5 375.5t-154.5 375.5t-370.5 154.5t-370.5 -154.5t-154.5 -375.5zM375 1507 v143q0 107 69 176t156 69t137 -50t63 -50q25 0 25 64l200 134v-143q0 -100 -69 -172.5t-156 -72.5t-137 50t-63 50q-25 0 -25 -64z" />
<glyph unicode="&#xd6;" horiz-adv-x="1550" d="M-25 700q0 297 211.5 508.5t513.5 211.5t513.5 -211.5t211.5 -508.5t-211.5 -508.5t-513.5 -211.5t-513.5 211.5t-211.5 508.5zM175 700q0 -221 154.5 -375.5t370.5 -154.5t370.5 154.5t154.5 375.5t-154.5 375.5t-370.5 154.5t-370.5 -154.5t-154.5 -375.5zM375 1530 v190h200v-190h-200zM825 1530v190h200v-190h-200z" />
<glyph unicode="&#xd7;" d="M-35 230l234 545l-234 545h203l132 -309l132 309h203l-234 -545l234 -545h-203l-132 309l-132 -309h-203z" />
<glyph unicode="&#xd8;" horiz-adv-x="1550" d="M-48 -20l208 239q-185 194 -185 481q0 297 211.5 508.5t513.5 211.5q242 0 406 -121l106 121h236l-208 -239q185 -194 185 -481q0 -297 -211.5 -508.5t-513.5 -211.5q-242 0 -406 121l-106 -121h-236zM175 700q0 -207 116 -334l687 786q-112 78 -278 78 q-216 0 -370.5 -154.5t-154.5 -375.5zM422 248q112 -78 278 -78q216 0 370.5 154.5t154.5 375.5q0 207 -116 334z" />
<glyph unicode="&#xd9;" d="M-50 2020h237l463 -490h-237zM-25 300v1120h200v-1120q0 -55 37.5 -92.5t87.5 -37.5t87.5 37.5t37.5 92.5v1120h200v-1120q0 -131 -94.5 -225.5t-230.5 -94.5t-230.5 94.5t-94.5 225.5z" />
<glyph unicode="&#xda;" d="M-50 1530l463 490h237l-463 -490h-237zM-25 300v1120h200v-1120q0 -55 37.5 -92.5t87.5 -37.5t87.5 37.5t37.5 92.5v1120h200v-1120q0 -131 -94.5 -225.5t-230.5 -94.5t-230.5 94.5t-94.5 225.5z" />
<glyph unicode="&#xdb;" d="M-42 1530l342 512l342 -512h-207l-135 203l-135 -203h-207zM-25 300v1120h200v-1120q0 -55 37.5 -92.5t87.5 -37.5t87.5 37.5t37.5 92.5v1120h200v-1120q0 -131 -94.5 -225.5t-230.5 -94.5t-230.5 94.5t-94.5 225.5z" />
<glyph unicode="&#xdc;" d="M-25 300v1120h200v-1120q0 -55 37.5 -92.5t87.5 -37.5t87.5 37.5t37.5 92.5v1120h200v-1120q0 -131 -94.5 -225.5t-230.5 -94.5t-230.5 94.5t-94.5 225.5zM-25 1530v190h200v-190h-200zM425 1530v190h200v-190h-200z" />
<glyph unicode="&#xdd;" d="M-50 1530l463 490h237l-463 -490h-237zM-32 1420h201l131 -393l131 393h201l-232 -697v-743h-200v743z" />
<glyph unicode="&#xde;" horiz-adv-x="900" d="M-42 370h117v725l-117 175h117v150h200v-150q194 0 347 -160t153 -385q0 -224 -151 -383q-136 -142 -305 -158l-2 -4h-42v-200h-200v215zM275 370q108 0 204 103t96 252t-96 252t-204 103v-710z" />
<glyph unicode="&#xdf;" d="M-25 -20v1120q0 131 94.5 225.5t230.5 94.5t230.5 -94.5t94.5 -225.5q0 -130 -97 -229q97 -91 97 -221v-350q0 -131 -94.5 -225.5t-245.5 -94.5l-110 165v-165h-200zM175 170h125q50 0 87.5 37.5t37.5 92.5v350q0 55 -37.5 92.5t-102.5 37.5l-110 165v-775zM175 970h125 q50 0 87.5 37.5t37.5 92.5t-37.5 92.5t-87.5 37.5t-87.5 -37.5t-37.5 -92.5v-130z" />
<glyph unicode="&#xe0;" d="M-50 1670h237l463 -490h-237zM-25 300v100q0 131 94.5 225.5t230.5 94.5q91 0 125 -20v50q0 55 -37.5 92.5t-87.5 37.5t-87.5 -37.5t-37.5 -112.5h-200q0 151 94.5 245.5t230.5 94.5t230.5 -94.5t94.5 -225.5v-770h-200v20q-34 -20 -125 -20q-136 0 -230.5 94.5 t-94.5 225.5zM175 300q0 -55 37.5 -92.5t87.5 -37.5t87.5 37.5t37.5 92.5v100q0 55 -37.5 92.5t-87.5 37.5t-87.5 -37.5t-37.5 -92.5v-100z" />
<glyph unicode="&#xe1;" d="M-50 1180l463 490h237l-463 -490h-237zM-25 300v100q0 131 94.5 225.5t230.5 94.5q91 0 125 -20v50q0 55 -37.5 92.5t-87.5 37.5t-87.5 -37.5t-37.5 -112.5h-200q0 151 94.5 245.5t230.5 94.5t230.5 -94.5t94.5 -225.5v-770h-200v20q-34 -20 -125 -20q-136 0 -230.5 94.5 t-94.5 225.5zM175 300q0 -55 37.5 -92.5t87.5 -37.5t87.5 37.5t37.5 92.5v100q0 55 -37.5 92.5t-87.5 37.5t-87.5 -37.5t-37.5 -92.5v-100z" />
<glyph unicode="&#xe2;" d="M-42 1180l342 512l342 -512h-207l-135 203l-135 -203h-207zM-25 300v100q0 131 94.5 225.5t230.5 94.5q91 0 125 -20v50q0 55 -37.5 92.5t-87.5 37.5t-87.5 -37.5t-37.5 -112.5h-200q0 151 94.5 245.5t230.5 94.5t230.5 -94.5t94.5 -225.5v-770h-200v20q-34 -20 -125 -20 q-136 0 -230.5 94.5t-94.5 225.5zM175 300q0 -55 37.5 -92.5t87.5 -37.5t87.5 37.5t37.5 92.5v100q0 55 -37.5 92.5t-87.5 37.5t-87.5 -37.5t-37.5 -92.5v-100z" />
<glyph unicode="&#xe3;" d="M-25 300v100q0 131 94.5 225.5t230.5 94.5q91 0 125 -20v50q0 55 -37.5 92.5t-87.5 37.5t-87.5 -37.5t-37.5 -112.5h-200q0 151 94.5 245.5t230.5 94.5t230.5 -94.5t94.5 -225.5v-770h-200v20q-34 -20 -125 -20q-136 0 -230.5 94.5t-94.5 225.5zM-25 1157v143 q0 107 69 176t156 69t137 -50t63 -50q25 0 25 64l200 134v-143q0 -100 -69 -172.5t-156 -72.5t-137 50t-63 50q-25 0 -25 -64zM175 300q0 -55 37.5 -92.5t87.5 -37.5t87.5 37.5t37.5 92.5v100q0 55 -37.5 92.5t-87.5 37.5t-87.5 -37.5t-37.5 -92.5v-100z" />
<glyph unicode="&#xe4;" d="M-25 300v100q0 131 94.5 225.5t230.5 94.5q91 0 125 -20v50q0 55 -37.5 92.5t-87.5 37.5t-87.5 -37.5t-37.5 -112.5h-200q0 151 94.5 245.5t230.5 94.5t230.5 -94.5t94.5 -225.5v-770h-200v20q-34 -20 -125 -20q-136 0 -230.5 94.5t-94.5 225.5zM-25 1180v190h200v-190 h-200zM175 300q0 -55 37.5 -92.5t87.5 -37.5t87.5 37.5t37.5 92.5v100q0 55 -37.5 92.5t-87.5 37.5t-87.5 -37.5t-37.5 -92.5v-100zM425 1180v190h200v-190h-200z" />
<glyph unicode="&#xe5;" d="M-25 300v100q0 131 94.5 225.5t230.5 94.5q91 0 125 -20v50q0 55 -37.5 92.5t-87.5 37.5t-87.5 -37.5t-37.5 -112.5h-200q0 151 94.5 245.5t230.5 94.5t230.5 -94.5t94.5 -225.5v-770h-200v20q-34 -20 -125 -20q-136 0 -230.5 94.5t-94.5 225.5zM50 1425 q0 100 72.5 172.5t177.5 72.5t177.5 -72.5t72.5 -172.5t-72.5 -172.5t-177.5 -72.5t-177.5 72.5t-72.5 172.5zM175 300q0 -55 37.5 -92.5t87.5 -37.5t87.5 37.5t37.5 92.5v100q0 55 -37.5 92.5t-87.5 37.5t-87.5 -37.5t-37.5 -92.5v-100zM250 1425q0 -24 15.5 -39.5 t34.5 -15.5t34.5 15.5t15.5 39.5t-15.5 39.5t-34.5 15.5t-34.5 -15.5t-15.5 -39.5z" />
<glyph unicode="&#xe6;" horiz-adv-x="1200" d="M-25 300v100q0 131 94.5 225.5t230.5 94.5q91 0 125 -20v50q0 55 -37.5 92.5t-87.5 37.5t-87.5 -37.5t-37.5 -112.5h-200q0 151 94.5 245.5t230.5 94.5t220 -93q93 93 230 93q136 0 230.5 -94.5t94.5 -225.5v-345h-450v-105q0 -55 37.5 -92.5t87.5 -37.5h342l-127 -190 h-215q-91 0 -125 20v-20h-200v20q-34 -20 -125 -20q-136 0 -230.5 94.5t-94.5 225.5zM175 300q0 -55 37.5 -92.5t87.5 -37.5t87.5 37.5t37.5 92.5v100q0 55 -37.5 92.5t-87.5 37.5t-87.5 -37.5t-37.5 -92.5v-100zM625 595h250v155q0 55 -37.5 92.5t-87.5 37.5t-87.5 -37.5 t-37.5 -92.5v-155z" />
<glyph unicode="&#xe7;" horiz-adv-x="675" d="M-100 -225q0 107 69 176t156 69t137 -50t63 -50q25 0 25 55v31q-114 33 -215 136q-160 158 -160 383q0 224 160 384.5t415 160.5v-190q-168 0 -271.5 -103.5t-103.5 -251.5t103.5 -251.5t271.5 -103.5v-195q0 -100 -69 -172.5t-156 -72.5t-137 50t-63 50q-25 0 -25 -64 l-200 -134v143z" />
<glyph unicode="&#xe8;" d="M-50 1670h237l463 -490h-237zM-25 300v450q0 132 94 226t231 94q136 0 230.5 -94.5t94.5 -225.5v-345h-450v-105q0 -55 37.5 -92.5t87.5 -37.5h342l-127 -190h-215q-136 0 -230.5 94.5t-94.5 225.5zM175 595h250v155q0 55 -37.5 92.5t-87.5 37.5t-87.5 -37.5t-37.5 -92.5 v-155z" />
<glyph unicode="&#xe9;" d="M-50 1180l463 490h237l-463 -490h-237zM-25 300v450q0 132 94 226t231 94q136 0 230.5 -94.5t94.5 -225.5v-345h-450v-105q0 -55 37.5 -92.5t87.5 -37.5h342l-127 -190h-215q-136 0 -230.5 94.5t-94.5 225.5zM175 595h250v155q0 55 -37.5 92.5t-87.5 37.5t-87.5 -37.5 t-37.5 -92.5v-155z" />
<glyph unicode="&#xea;" d="M-42 1180l342 512l342 -512h-207l-135 203l-135 -203h-207zM-25 300v450q0 132 94 226t231 94q136 0 230.5 -94.5t94.5 -225.5v-345h-450v-105q0 -55 37.5 -92.5t87.5 -37.5h342l-127 -190h-215q-136 0 -230.5 94.5t-94.5 225.5zM175 595h250v155q0 55 -37.5 92.5 t-87.5 37.5t-87.5 -37.5t-37.5 -92.5v-155z" />
<glyph unicode="&#xeb;" d="M-25 300v450q0 132 94 226t231 94q136 0 230.5 -94.5t94.5 -225.5v-345h-450v-105q0 -55 37.5 -92.5t87.5 -37.5h342l-127 -190h-215q-136 0 -230.5 94.5t-94.5 225.5zM-25 1180v190h200v-190h-200zM175 595h250v155q0 55 -37.5 92.5t-87.5 37.5t-87.5 -37.5t-37.5 -92.5 v-155zM425 1180v190h200v-190h-200z" />
<glyph unicode="&#xec;" horiz-adv-x="300" d="M-275 1670h237l463 -490h-237zM-25 -20v1090h200v-1090h-200z" />
<glyph unicode="&#xed;" horiz-adv-x="300" d="M-275 1180l463 490h237l-463 -490h-237zM-25 -20v1090h200v-1090h-200z" />
<glyph unicode="&#xee;" horiz-adv-x="300" d="M-267 1180l342 512l342 -512h-207l-135 203l-135 -203h-207zM-25 -20v1090h200v-1090h-200z" />
<glyph unicode="&#xef;" horiz-adv-x="300" d="M-250 1180v190h200v-190h-200zM-25 -20v1090h200v-1090h-200zM200 1180v190h200v-190h-200z" />
<glyph unicode="&#xf0;" horiz-adv-x="825" d="M-25 525q0 224 160.5 384.5t364.5 160.5v60h-265l-127 190h392v100h200v-1440h-175q-229 0 -389.5 160t-160.5 385zM175 525q0 -148 103.5 -251.5t221.5 -103.5v710q-118 0 -221.5 -103.5t-103.5 -251.5z" />
<glyph unicode="&#xf1;" d="M-25 -20v1090h200v-20q34 20 125 20q136 0 230.5 -94.5t94.5 -225.5v-770h-200v770q0 55 -37.5 92.5t-87.5 37.5t-88 -38q-37 -37 -37 -91v-771h-200zM-25 1157v143q0 107 69 176t156 69t137 -50t63 -50q25 0 25 64l200 134v-143q0 -100 -69 -172.5t-156 -72.5t-137 50 t-63 50q-25 0 -25 -64z" />
<glyph unicode="&#xf2;" horiz-adv-x="1200" d="M-25 525q0 224 160 384.5t390 160.5q229 0 389.5 -160.5t160.5 -384.5q0 -225 -160.5 -385t-389.5 -160q-230 0 -390 160t-160 385zM175 525q0 -148 103.5 -251.5t246.5 -103.5t246.5 103.5t103.5 251.5t-103.5 251.5t-246.5 103.5t-246.5 -103.5t-103.5 -251.5z M175 1670h237l463 -490h-237z" />
<glyph unicode="&#xf3;" horiz-adv-x="1200" d="M-25 525q0 224 160 384.5t390 160.5q229 0 389.5 -160.5t160.5 -384.5q0 -225 -160.5 -385t-389.5 -160q-230 0 -390 160t-160 385zM175 525q0 -148 103.5 -251.5t246.5 -103.5t246.5 103.5t103.5 251.5t-103.5 251.5t-246.5 103.5t-246.5 -103.5t-103.5 -251.5z M175 1180l463 490h237l-463 -490h-237z" />
<glyph unicode="&#xf4;" horiz-adv-x="1200" d="M-25 525q0 224 160 384.5t390 160.5q229 0 389.5 -160.5t160.5 -384.5q0 -225 -160.5 -385t-389.5 -160q-230 0 -390 160t-160 385zM175 525q0 -148 103.5 -251.5t246.5 -103.5t246.5 103.5t103.5 251.5t-103.5 251.5t-246.5 103.5t-246.5 -103.5t-103.5 -251.5z M183 1180l342 512l342 -512h-207l-135 203l-135 -203h-207z" />
<glyph unicode="&#xf5;" horiz-adv-x="1200" d="M-25 525q0 224 160 384.5t390 160.5q229 0 389.5 -160.5t160.5 -384.5q0 -225 -160.5 -385t-389.5 -160q-230 0 -390 160t-160 385zM175 525q0 -148 103.5 -251.5t246.5 -103.5t246.5 103.5t103.5 251.5t-103.5 251.5t-246.5 103.5t-246.5 -103.5t-103.5 -251.5z M200 1157v143q0 107 69 176t156 69t137 -50t63 -50q25 0 25 64l200 134v-143q0 -100 -69 -172.5t-156 -72.5t-137 50t-63 50q-25 0 -25 -64z" />
<glyph unicode="&#xf6;" horiz-adv-x="1200" d="M-25 525q0 224 160 384.5t390 160.5q229 0 389.5 -160.5t160.5 -384.5q0 -225 -160.5 -385t-389.5 -160q-230 0 -390 160t-160 385zM175 525q0 -148 103.5 -251.5t246.5 -103.5t246.5 103.5t103.5 251.5t-103.5 251.5t-246.5 103.5t-246.5 -103.5t-103.5 -251.5z M200 1180v190h200v-190h-200zM650 1180v190h200v-190h-200z" />
<glyph unicode="&#xf7;" horiz-adv-x="850" d="M-42 1070h767v-190h-640zM275 580v190h200v-190h-200zM275 1180v190h200v-190h-200z" />
<glyph unicode="&#xf8;" horiz-adv-x="1200" d="M-47 -20l157 187q-135 144 -135 358q0 224 160 384.5t390 160.5q167 0 277 -72l60 72h235l-157 -187q135 -145 135 -358q0 -225 -160.5 -385t-389.5 -160q-167 0 -277 72l-60 -72h-235zM175 525q0 -132 62 -204l439 526q-57 33 -151 33q-143 0 -246.5 -103.5 t-103.5 -251.5zM374 203q57 -33 151 -33q143 0 246.5 103.5t103.5 251.5q0 132 -62 204z" />
<glyph unicode="&#xf9;" d="M-50 1670h237l463 -490h-237zM-25 300v770h200v-770q0 -55 37.5 -92.5t87.5 -37.5t87.5 37.5t37.5 92.5v770h200v-770q0 -131 -94.5 -225.5t-230.5 -94.5t-230.5 94.5t-94.5 225.5z" />
<glyph unicode="&#xfa;" d="M-50 1180l463 490h237l-463 -490h-237zM-25 300v770h200v-770q0 -55 37.5 -92.5t87.5 -37.5t87.5 37.5t37.5 92.5v770h200v-770q0 -131 -94.5 -225.5t-230.5 -94.5t-230.5 94.5t-94.5 225.5z" />
<glyph unicode="&#xfb;" d="M-42 1180l342 512l342 -512h-207l-135 203l-135 -203h-207zM-25 300v770h200v-770q0 -55 37.5 -92.5t87.5 -37.5t87.5 37.5t37.5 92.5v770h200v-770q0 -131 -94.5 -225.5t-230.5 -94.5t-230.5 94.5t-94.5 225.5z" />
<glyph unicode="&#xfc;" d="M-25 300v770h200v-770q0 -55 37.5 -92.5t87.5 -37.5t87.5 37.5t37.5 92.5v770h200v-770q0 -131 -94.5 -225.5t-230.5 -94.5t-230.5 94.5t-94.5 225.5zM-25 1180v190h200v-190h-200zM425 1180v190h200v-190h-200z" />
<glyph unicode="&#xfd;" d="M-50 1180l463 490h237l-463 -490h-237zM-25 -30h200q0 -75 37.5 -112.5t87.5 -37.5t87.5 37.5t37.5 92.5v50q-34 -20 -125 -20q-136 0 -230.5 94.5t-94.5 225.5v770h200v-770q0 -55 37.5 -92.5t87.5 -37.5t88 38q37 37 37 91v771h200v-1120q0 -131 -94.5 -225.5 t-230.5 -94.5t-230.5 94.5t-94.5 245.5z" />
<glyph unicode="&#xfe;" horiz-adv-x="825" d="M-25 -370v1790h200v-350q204 0 364.5 -160t160.5 -385q0 -224 -160.5 -384.5t-364.5 -160.5v-350h-200zM175 170q118 0 221.5 103.5t103.5 251.5t-103.5 251.5t-221.5 103.5v-710z" />
<glyph unicode="&#xff;" d="M-25 -30h200q0 -75 37.5 -112.5t87.5 -37.5t87.5 37.5t37.5 92.5v50q-34 -20 -125 -20q-136 0 -230.5 94.5t-94.5 225.5v770h200v-770q0 -55 37.5 -92.5t87.5 -37.5t88 38q37 37 37 91v771h200v-1120q0 -131 -94.5 -225.5t-230.5 -94.5t-230.5 94.5t-94.5 245.5z M-25 1180v190h200v-190h-200zM425 1180v190h200v-190h-200z" />
<glyph unicode="&#x152;" horiz-adv-x="2000" d="M-25 700q0 297 211.5 508.5t513.5 211.5t513 -211q18 -18 20 -18q0 1 -8 11v43l-117 175h657l127 -190h-467v-160h367l-100 -150h459l-726 -198v-552h450v-190h-650v218q8 10 8 11q-2 0 -20 -18q-211 -211 -513 -211t-513.5 211.5t-211.5 508.5zM175 700 q0 -221 154.5 -375.5t370.5 -154.5t370.5 154.5t154.5 375.5t-154.5 375.5t-370.5 154.5t-370.5 -154.5t-154.5 -375.5zM1425 756l83 124h-83v-124z" />
<glyph unicode="&#x153;" horiz-adv-x="1650" d="M-25 525q0 224 160 384.5t390 160.5q229 0 389 -160l8 -8l-7 8q8 20 55 67q93 93 230 93q136 0 230.5 -94.5t94.5 -225.5v-345h-450v-105q0 -55 37.5 -92.5t87.5 -37.5h342l-127 -190h-215q-136 0 -230 94q-47 47 -55 66q7 7 7 8l-8 -8q-160 -160 -389 -160 q-230 0 -390 160t-160 385zM175 525q0 -148 103.5 -251.5t246.5 -103.5t246.5 103.5t103.5 251.5t-103.5 251.5t-246.5 103.5t-246.5 -103.5t-103.5 -251.5zM1075 595h250v155q0 55 -37.5 92.5t-87.5 37.5t-87.5 -37.5t-37.5 -92.5v-155z" />
<glyph unicode="&#x2c6;" d="M-42 1530l342 512l342 -512h-207l-135 203l-135 -203h-207z" />
<glyph unicode="&#x2dc;" d="M-25 1507v143q0 107 69 176t156 69t137 -50t63 -50q25 0 25 64l200 134v-143q0 -100 -69 -172.5t-156 -72.5t-137 50t-63 50q-25 0 -25 -64z" />
<glyph unicode="&#x2000;" horiz-adv-x="1021" />
<glyph unicode="&#x2001;" horiz-adv-x="2042" />
<glyph unicode="&#x2002;" horiz-adv-x="1021" />
<glyph unicode="&#x2003;" horiz-adv-x="2042" />
<glyph unicode="&#x2004;" horiz-adv-x="680" />
<glyph unicode="&#x2005;" horiz-adv-x="510" />
<glyph unicode="&#x2006;" horiz-adv-x="340" />
<glyph unicode="&#x2007;" horiz-adv-x="340" />
<glyph unicode="&#x2008;" horiz-adv-x="255" />
<glyph unicode="&#x2009;" horiz-adv-x="408" />
<glyph unicode="&#x200a;" horiz-adv-x="113" />
<glyph unicode="&#x2010;" horiz-adv-x="850" d="M-42 1070h767v-190h-640z" />
<glyph unicode="&#x2011;" horiz-adv-x="850" d="M-42 1070h767v-190h-640z" />
<glyph unicode="&#x2012;" horiz-adv-x="850" d="M-42 1070h767v-190h-640z" />
<glyph unicode="&#x2013;" horiz-adv-x="1108" d="M31 399v160h1046v-160h-1046z" />
<glyph unicode="&#x2014;" horiz-adv-x="2048" d="M-25 399v160h2098v-160h-2098z" />
<glyph unicode="&#x2018;" horiz-adv-x="400" d="M-32 1080l113 340h201l-113 -340h-201z" />
<glyph unicode="&#x2019;" horiz-adv-x="400" d="M-32 1420h201l113 -340h-201z" />
<glyph unicode="&#x201a;" horiz-adv-x="400" d="M-32 -170l113 340h201l-113 -340h-201z" />
<glyph unicode="&#x201c;" horiz-adv-x="650" d="M-32 1080l113 340h201l-113 -340h-201zM218 1080l113 340h201l-113 -340h-201z" />
<glyph unicode="&#x201d;" horiz-adv-x="650" d="M-32 1420h201l113 -340h-201zM218 1420h201l113 -340h-201z" />
<glyph unicode="&#x201e;" horiz-adv-x="650" d="M-32 -170l113 340h201l-113 -340h-201zM218 -170l113 340h201l-113 -340h-201z" />
<glyph unicode="&#x2022;" horiz-adv-x="1024" d="M191 718q0 130 93.5 222.5t228.5 92.5q134 0 227 -93t93 -222t-94 -223t-228 -94q-135 0 -227.5 93.5t-92.5 223.5z" />
<glyph unicode="&#x2026;" horiz-adv-x="700" d="M-25 -20v190h200v-190h-200zM185 -20v190h200v-190h-200zM395 -20v190h200v-190h-200z" />
<glyph unicode="&#x202f;" horiz-adv-x="408" />
<glyph unicode="&#x2039;" horiz-adv-x="675" d="M-27 700l386 720h204l-386 -720l386 -720h-204z" />
<glyph unicode="&#x203a;" horiz-adv-x="675" d="M-38 -20l386 720l-386 720h204l386 -720l-386 -720h-204z" />
<glyph unicode="&#x205f;" horiz-adv-x="510" />
<glyph unicode="&#x20ac;" horiz-adv-x="1000" d="M-42 670h167v30q0 108 21 180h-61l-127 190h268q40 67 111 139q211 211 538 211v-190q-241 0 -396 -155l-5 -5h251v-190h-371q-29 -76 -29 -180v-30h400v-190h-355q29 -75 109 -155q155 -155 396 -155v-190q-327 0 -538 211q-135 135 -180 289h-72z" />
<glyph unicode="&#x2122;" horiz-adv-x="975" d="M-42 1420h442v49l39 -49h3l-1 -2l57 -73h182l-151 -40l96 -122l225 286v-789h-125v451l-100 -127l-100 127v-451h-125v590l-150 -41v-549h-125v625h-90zM250 1293l8 12h-8v-12zM392 1345h8v12z" />
<glyph unicode="&#x25fc;" horiz-adv-x="1070" d="M0 0v1070h1070v-1070h-1070z" />
</font>
</defs>
</svg>
